<?xml version="1.0" encoding="UTF-8" standalone="no"?>
<!-- Created with Inkscape (http://www.inkscape.org/) -->

<svg
   version="1.1"
   id="svg2"
   width="960"
   height="550"
   viewBox="0 0 960 550"
   sodipodi:docname="banner.svg"
   inkscape:version="1.2.2 (b0a8486541, 2022-12-01)"
   inkscape:export-filename="banner.png"
   inkscape:export-xdpi="96"
   inkscape:export-ydpi="96"
   xmlns:inkscape="http://www.inkscape.org/namespaces/inkscape"
   xmlns:sodipodi="http://sodipodi.sourceforge.net/DTD/sodipodi-0.dtd"
   xmlns:xlink="http://www.w3.org/1999/xlink"
   xmlns="http://www.w3.org/2000/svg"
   xmlns:svg="http://www.w3.org/2000/svg">
  <defs
     id="defs6" />
  <sodipodi:namedview
     id="namedview4"
     pagecolor="#ffffff"
     bordercolor="#666666"
     borderopacity="1.0"
     inkscape:showpageshadow="2"
     inkscape:pageopacity="0.0"
     inkscape:pagecheckerboard="0"
     inkscape:deskcolor="#d1d1d1"
     showgrid="false"
     inkscape:zoom="0.96490613"
     inkscape:cx="459.11202"
     inkscape:cy="233.70149"
     inkscape:window-width="1920"
     inkscape:window-height="1043"
     inkscape:window-x="1920"
     inkscape:window-y="0"
     inkscape:window-maximized="1"
     inkscape:current-layer="layer1" />
  <g
     inkscape:groupmode="layer"
     inkscape:label="Background"
     id="g8">
    <image
       width="960"
       height="550"
       preserveAspectRatio="none"
       xlink:href="banner_bg.png"
       id="image10" />
  </g>
  <g
     inkscape:groupmode="layer"
     id="layer1"
     inkscape:label="Logo">
    <text
       xml:space="preserve"
       style="font-style:normal;font-variant:normal;font-weight:normal;font-stretch:normal;font-size:82.293px;line-height:125%;font-family:'Sour Gummy';-inkscape-font-specification:'Sour Gummy';letter-spacing:0px;word-spacing:0px;fill:#000000;fill-opacity:1;stroke:none;stroke-width:2.05732px;stroke-linecap:butt;stroke-linejoin:miter;stroke-opacity:1"
       x="21.779182"
       y="67.627632"
       id="text306"
       inkscape:label="things you can do with"><tspan
         sodipodi:role="line"
         id="tspan304"
         x="21.779182"
         y="67.627632"
         style="stroke-width:2.05732px">THINGS YOU CAN DO WITH</tspan></text>
    <g
       aria-label="TWO HANDS"
       id="text1781"
       style="font-weight:bold;font-size:170.627px;line-height:125%;font-family:'Sour Gummy';-inkscape-font-specification:'Sour Gummy Bold';letter-spacing:0px;word-spacing:0px;fill:#ceeb40;stroke:#000000;stroke-width:5.83683"
       inkscape:label="two hands">
      <path
         id="path1787"
         inkscape:label="t"
         d="M 74.578125 228.50586 C 71.947628 228.51297 69.308778 228.57375 66.664062 228.6875 C 56.19895 229.02875 45.67652 229.82491 35.097656 231.07617 L 33.732422 231.24805 C 32.936163 231.3618 31.913373 231.58843 30.662109 231.92969 C 29.410846 232.27094 28.159467 232.84046 26.908203 233.63672 C 25.770691 234.31922 24.860242 235.34201 24.177734 236.70703 C 23.608978 237.9583 23.438513 239.60873 23.666016 241.65625 C 24.007269 243.70377 24.691083 245.35226 25.714844 246.60352 C 26.738605 247.74103 27.93186 248.65147 29.296875 249.33398 C 30.775641 249.90274 32.197485 250.35797 33.5625 250.69922 C 34.927515 250.92673 36.0646 251.03906 36.974609 251.03906 L 38.339844 251.03906 C 42.889893 250.92531 47.83924 250.86914 53.185547 250.86914 C 53.656602 250.86914 54.14739 250.87607 54.621094 250.87695 C 54.317203 254.92072 54.061002 259.0603 53.867188 263.32422 C 53.525934 270.8318 53.355469 278.34008 53.355469 285.84766 C 53.355469 293.35524 53.469763 300.63493 53.697266 307.6875 C 54.038519 314.74007 54.549915 321.3379 55.232422 327.48047 L 55.574219 329.1875 C 55.915472 330.32501 56.541162 331.69068 57.451172 333.2832 C 58.361182 334.76197 59.668732 336.12569 61.375 337.37695 C 63.19502 338.51447 65.583484 339.08398 68.541016 339.08398 C 71.498547 339.19773 73.77467 338.74251 75.367188 337.71875 C 77.073456 336.69499 78.266711 335.55791 78.949219 334.30664 C 79.745477 333.05538 80.200702 331.91634 80.314453 330.89258 L 80.65625 329.35742 C 80.428748 324.12487 80.200159 318.55179 79.972656 312.63672 C 79.745154 306.72166 79.574689 300.74952 79.460938 294.7207 L 79.460938 276.63477 C 79.574689 270.7197 79.688983 265.0885 79.802734 259.74219 C 79.923493 256.84399 80.080768 254.07424 80.265625 251.40039 C 82.351611 251.49688 84.436062 251.59366 86.457031 251.72266 C 91.91709 251.95016 96.922607 252.29109 101.47266 252.74609 L 103.00781 252.74609 C 104.14532 252.63234 105.3967 252.29142 106.76172 251.72266 C 108.24048 251.1539 109.49187 250.18728 110.51562 248.82227 C 111.53938 247.45725 112.1089 245.52401 112.22266 243.02148 C 112.22266 240.97396 111.70931 239.20923 110.68555 237.73047 C 109.77553 236.13795 108.63845 234.88657 107.27344 233.97656 C 105.90842 232.9528 104.48658 232.15664 103.00781 231.58789 C 101.6428 231.01913 100.44759 230.62203 99.423828 230.39453 L 98.060547 229.88281 C 90.297026 228.94436 82.469616 228.48453 74.578125 228.50586 z " />
      <path
         id="path1789"
         inkscape:label="w"
         d="m 132.35547,229.0293 c -2.84379,0.11375 -5.06178,0.68327 -6.6543,1.70703 -1.59252,1.02376 -2.7296,2.16085 -3.41211,3.41211 -0.6825,1.25126 -1.08156,2.38835 -1.19531,3.41211 l -0.16992,1.53515 c 1.93377,12.05763 3.81084,23.14958 5.63086,33.27344 1.82002,10.01011 3.75325,18.9964 5.80078,26.95898 2.16127,7.96259 4.66403,14.78705 7.50781,20.47461 2.95754,5.68757 6.48308,10.18169 10.57813,13.48047 4.09504,3.18504 8.98626,5.17445 14.67382,5.97071 3.52629,0.56876 7.10997,-0.34169 10.75,-2.73047 3.75379,-2.38877 7.33747,-6.19908 10.75,-11.43164 3.52629,-5.34631 7.2482,-23.16307 10.31948,-31.12565 0.063,-0.16341 0.12815,-0.67479 0.18359,-0.50782 1.89139,5.69593 3.34574,21.9639 5.536,26.3444 2.95753,5.68757 6.48308,10.18169 10.57812,13.48047 4.09504,3.18504 8.98627,5.17445 14.67383,5.97071 3.52629,0.56876 7.10996,-0.34169 10.75,-2.73047 3.75379,-2.38877 7.33746,-6.19908 10.75,-11.43164 3.52628,-5.34631 6.8252,-12.00031 9.89648,-19.96289 3.07129,-7.96259 5.80068,-17.06318 8.18946,-27.30079 2.50252,-10.35135 4.43576,-21.78228 5.80078,-34.29492 l -0.16992,-1.70703 c -0.11376,-1.25126 -0.56898,-2.6731 -1.36524,-4.26562 -0.6825,-1.59251 -1.93389,-3.07053 -3.7539,-4.43555 -1.82002,-1.47877 -4.54941,-2.50351 -8.18946,-3.07227 -3.07128,-0.455 -5.51787,-0.28454 -7.33789,0.51172 -1.70626,0.79626 -3.01381,1.82101 -3.92383,3.07227 -0.91,1.13751 -1.53569,2.21842 -1.87695,3.24219 l -0.3418,1.53515 c -0.56875,6.59757 -1.47725,13.0811 -2.72851,19.45117 -1.13751,6.37007 -2.44702,12.39838 -3.92578,18.08594 -1.47877,5.68756 -3.01491,10.80737 -4.60742,15.35742 -1.47877,4.55005 -2.90061,8.24607 -4.26563,11.08985 -1.25126,2.84378 -2.33022,4.60655 -3.24023,5.28906 -0.91002,-1.70627 -1.87859,-3.80998 -2.90235,-6.3125 -0.91,-2.50252 -1.9328,-5.5748 -3.07031,-9.21484 -1.02377,-3.75379 -2.16085,-8.01933 -3.41211,-12.79688 -1.13751,-4.8913 -2.38889,-10.40821 -3.75391,-16.55078 -1.25126,-6.25632 -2.61693,-13.25125 -4.0957,-20.98633 -0.11375,-1.25126 -0.56897,-2.6731 -1.36523,-4.26562 -0.68251,-1.59251 -1.93388,-3.07053 -3.75391,-4.43555 -0.96812,-0.7866 -2.21221,-1.43573 -3.69531,-1.96484 -1.41344,-0.96321 -2.9079,-1.52 -4.49414,-1.61914 -1.34556,0 -2.5443,0.10656 -3.63086,0.29492 -1.42775,0.0505 -2.67872,0.27863 -3.70703,0.72851 -1.70627,0.68251 -3.01383,1.59296 -3.92383,2.73047 -0.91001,1.13751 -1.5357,2.21843 -1.87695,3.24219 l -0.3418,1.36523 c -0.56876,6.59757 -1.47725,13.13728 -2.72852,19.6211 -1.13751,6.37006 -2.44701,12.4565 -3.92578,18.25781 -1.47876,5.68756 -3.01295,10.86354 -4.60547,15.52734 -1.47876,4.55005 -2.90061,8.24607 -4.26562,11.08985 -1.25127,2.84378 -2.33218,4.60655 -3.24219,5.28906 -0.91001,-1.70627 -1.87663,-3.86614 -2.90039,-6.48242 -0.91001,-2.61628 -1.99092,-5.85902 -3.24219,-9.72656 -1.13751,-3.86754 -2.33272,-8.30354 -3.58398,-13.3086 -1.25127,-5.00505 -2.55882,-10.69243 -3.92383,-17.0625 -1.36502,-6.37007 -2.78686,-13.36695 -4.26562,-20.98828 l -0.6836,-1.70508 c -0.34125,-1.13751 -1.02311,-2.44701 -2.04687,-3.92578 -1.02376,-1.47876 -2.50178,-2.72819 -4.43555,-3.75195 -1.82003,-1.13751 -4.26661,-1.70703 -7.33789,-1.70703 z"
         sodipodi:nodetypes="csscccccccccsscccccscccccccccccsccccccccccccccscccccccccssccscc" />
      <path
         d="m 325.67606,340.78982 q -10.74951,0 -19.62211,-3.92442 -8.8726,-3.92442 -15.35643,-10.92013 -6.3132,-7.16634 -9.55511,-16.72145 -3.24191,-9.72574 -2.55941,-21.32837 0.51188,-11.60264 4.60693,-22.35214 4.09505,-10.7495 11.09076,-19.28085 7.16633,-8.53135 16.72144,-13.47953 9.72574,-5.11881 21.32838,-5.11881 8.70198,0 17.57458,1.87689 8.8726,1.70627 16.72144,5.97195 8.01947,4.09505 14.16205,10.92013 6.31319,6.82508 9.55511,16.89207 3.24191,9.89637 2.5594,23.3759 -0.51188,10.92013 -4.94818,19.6221 -4.26568,8.53135 -11.26138,15.01518 -6.82508,6.48383 -15.52706,10.92013 -8.53135,4.26567 -17.74521,6.48382 -9.04323,2.04753 -17.7452,2.04753 z m 5.11881,-25.42343 q 4.4363,0 9.04323,-1.19438 4.60693,-1.19439 8.8726,-3.7538 4.26568,-2.5594 7.67822,-6.3132 3.41254,-3.92442 5.63069,-9.04323 2.21815,-5.28944 2.38877,-11.77326 0.51188,-8.70198 -1.87689,-14.67392 -2.38878,-5.97195 -6.65446,-9.55512 -4.26567,-3.75379 -9.72573,-5.28943 -5.46007,-1.70627 -11.09076,-1.70627 -5.46006,0 -10.40825,2.73003 -4.94818,2.5594 -8.8726,7.33696 -3.75379,4.60693 -6.14257,10.92013 -2.21815,6.14257 -2.55941,12.96765 -0.51188,9.21386 2.38878,15.86831 2.90066,6.48383 8.36072,10.06699 5.46007,3.41254 12.96766,3.41254 z"
         id="path1791"
         inkscape:label="o" />
      <path
         id="path1793"
         inkscape:label="h"
         d="M 463.20117 228.6875 C 460.35739 228.6875 458.13939 229.1989 456.54688 230.22266 C 454.95436 231.13267 453.81728 232.21358 453.13477 233.46484 C 452.45226 234.60236 451.99703 235.68327 451.76953 236.70703 L 451.59961 238.07227 C 451.1446 243.53233 450.74555 249.334 450.4043 255.47656 C 450.06304 261.61913 449.77828 267.9322 449.55078 274.41602 C 449.43703 280.78609 449.43703 287.09916 449.55078 293.35547 C 449.66453 299.61179 449.83499 305.6401 450.0625 311.44141 C 450.40375 317.24272 450.80281 322.58917 451.25781 327.48047 L 451.59961 329.1875 C 451.94086 330.32501 452.56655 331.69068 453.47656 333.2832 C 454.38657 334.76197 455.69412 336.12569 457.40039 337.37695 C 459.22041 338.51447 461.60888 339.08398 464.56641 339.08398 C 467.63769 339.19773 469.96998 338.74251 471.5625 337.71875 C 473.26877 336.69499 474.46203 335.55791 475.14453 334.30664 C 475.94079 333.05538 476.39602 331.91634 476.50977 330.89258 L 476.68164 329.35742 C 476.45414 324.12487 476.22555 318.55179 475.99805 312.63672 C 475.8864 309.67804 475.78933 306.70482 475.70508 303.71875 L 516.44922 301.20508 C 516.54233 304.68543 516.64869 308.11101 516.7793 311.44141 C 517.12056 317.24272 517.51766 322.58917 517.97266 327.48047 L 518.31445 329.1875 C 518.65571 330.32501 519.2814 331.69068 520.19141 333.2832 C 521.21517 334.76197 522.57889 336.12569 524.28516 337.37695 C 526.10517 338.51447 528.43747 339.08398 531.28125 339.08398 C 534.35253 339.19773 536.68483 338.74251 538.27734 337.71875 C 539.98361 336.69499 541.17882 335.55791 541.86133 334.30664 C 542.65759 333.05538 543.11281 331.91634 543.22656 330.89258 L 543.39648 329.35742 C 543.16898 324.12487 542.94039 318.55179 542.71289 312.63672 C 542.48538 306.6079 542.31492 300.52147 542.20117 294.37891 L 542.20117 276.29297 C 542.31492 270.26415 542.48538 264.51865 542.71289 259.05859 C 542.94039 253.59854 543.28328 248.53685 543.73828 243.87305 L 543.73828 242.33789 C 543.73828 241.31413 543.56782 240.06275 543.22656 238.58398 C 542.88531 237.10521 542.20149 235.6272 541.17773 234.14844 C 540.26772 232.66967 538.904 231.41829 537.08398 230.39453 C 535.37771 229.37077 532.9873 228.80125 529.91602 228.6875 C 527.07224 228.6875 524.85424 229.1989 523.26172 230.22266 C 521.78295 231.13267 520.64587 232.21358 519.84961 233.46484 C 519.1671 234.60236 518.71188 235.68327 518.48438 236.70703 L 518.31445 238.07227 C 517.85945 243.53233 517.46039 249.334 517.11914 255.47656 C 516.77789 261.61913 516.49313 267.9322 516.26562 274.41602 C 516.24871 275.36303 516.25212 276.29964 516.24023 277.24414 L 475.48633 280.20312 L 475.48633 276.29297 C 475.60008 270.26415 475.77055 264.51865 475.99805 259.05859 C 476.22555 253.59854 476.56648 248.53685 477.02148 243.87305 L 477.02148 242.33789 C 477.02148 241.31413 476.85102 240.06275 476.50977 238.58398 C 476.16851 237.10521 475.48665 235.6272 474.46289 234.14844 C 473.55288 232.66967 472.18721 231.41829 470.36719 230.39453 C 468.54717 229.37077 466.1587 228.80125 463.20117 228.6875 z " />
      <path
         id="path1795"
         inkscape:label="a"
         d="M 598.125 229.76562 C 597.61312 229.75852 597.11626 229.7975 596.63281 229.88281 C 594.01654 229.88281 591.45566 230.33804 588.95312 231.24805 C 586.56435 232.04431 584.06159 233.74896 581.44531 236.36523 C 578.82904 238.86777 576.09964 242.68003 573.25586 247.79883 C 570.52583 252.91764 567.56784 259.79827 564.38281 268.44336 C 561.31153 278.33972 558.63831 288.12217 556.36328 297.79102 C 554.202 307.34612 552.95063 316.78763 552.60938 326.11523 L 552.78125 327.99219 C 552.895 329.1297 553.35023 330.55154 554.14648 332.25781 C 554.94274 333.96408 556.25029 335.55639 558.07031 337.03516 C 559.89033 338.40017 562.50739 339.31062 565.91992 339.76562 C 568.99121 340.10688 571.43584 339.88024 573.25586 339.08398 C 575.07588 338.28773 576.44155 337.26298 577.35156 336.01172 C 578.26157 334.76045 578.82913 333.67954 579.05664 332.76953 L 579.56836 331.23438 C 579.9365 327.73707 580.24148 324.93993 580.53516 322.26172 C 580.72852 322.24061 580.91034 322.21142 581.10547 322.19141 C 585.54177 321.73641 590.14823 321.56594 594.92578 321.67969 C 599.81708 321.67969 604.59401 321.90632 609.25781 322.36133 C 610.33222 322.43994 611.38369 322.53023 612.42188 322.62695 C 612.84138 324.79458 613.23834 326.87001 613.69531 329.1875 L 614.20703 330.89258 C 614.66204 331.91634 615.40007 333.22584 616.42383 334.81836 C 617.56134 336.29712 619.09748 337.60468 621.03125 338.74219 C 622.96502 339.76595 625.41161 340.27734 628.36914 340.27734 C 631.32667 340.27734 633.54467 339.76595 635.02344 338.74219 C 636.61596 337.71843 637.75304 336.58134 638.43555 335.33008 C 639.11806 333.96507 639.45898 332.76985 639.45898 331.74609 L 639.63086 330.21094 C 638.94835 322.81711 637.92361 315.53742 636.55859 308.37109 C 635.30733 301.20477 633.82931 294.37835 632.12305 287.89453 C 630.53053 281.41071 628.93822 275.611 627.3457 270.49219 C 625.75318 265.37339 624.38751 261.22019 623.25 258.03516 C 621.99873 253.37136 620.23596 249.22012 617.96094 245.58008 C 615.79967 241.94004 613.40925 238.92589 610.79297 236.53711 C 608.17669 234.03459 605.61776 232.21368 603.11523 231.07617 C 601.32365 230.22304 599.66064 229.78695 598.125 229.76562 z M 597.14453 261.78906 C 598.73705 265.88411 600.21507 270.32011 601.58008 275.09766 C 603.05884 279.76146 604.59498 285.27837 606.1875 291.64844 C 607.05545 294.6468 607.86456 298.1727 608.62305 302.15625 C 606.58423 302.13499 604.56866 302.14663 602.60352 302.22852 C 597.25721 302.34226 592.02506 302.73937 586.90625 303.42188 C 585.78024 303.57542 584.64328 303.74931 583.5 303.93164 C 583.61443 303.3581 583.71233 302.81651 583.83398 302.22852 C 584.63024 298.92973 585.54069 294.89083 586.56445 290.11328 C 587.36071 287.042 588.32733 283.80121 589.46484 280.38867 C 590.7161 276.97614 592.02561 273.67722 593.39062 270.49219 C 594.75564 267.1934 596.00702 264.29159 597.14453 261.78906 z " />
      <path
         d="m 662.32348,339.08355 q -4.09504,-0.34126 -6.65445,-1.8769 -2.5594,-1.53564 -4.09505,-3.58317 -1.53564,-2.21815 -2.04752,-3.58316 -0.34125,-1.53565 -0.34125,-1.53565 -1.02377,-9.21385 -1.36502,-19.28085 -0.34125,-10.23762 -0.34125,-20.47524 0.17062,-10.40824 0.51188,-20.47524 0.34125,-10.06699 0.85313,-19.45147 0,0 0.34126,-1.8769 0.34125,-1.8769 2.21815,-4.09505 1.87689,-2.38878 5.97194,-3.41254 2.38878,-0.85313 4.94818,-0.34125 2.73004,0.51188 4.77756,1.36501 2.04752,0.68251 2.21815,1.02376 6.14257,5.97195 13.47953,14.16205 7.33697,8.01946 15.35643,17.7452 8.1901,9.55511 16.55082,20.13399 -0.17062,-5.97195 -0.34125,-12.28515 -0.17063,-6.48382 0,-13.3089 0.17063,-6.82508 0.51188,-14.5033 0.34125,-7.67821 1.02376,-16.38019 0,0 0.34126,-1.19439 0.34125,-1.36501 1.36501,-2.90066 1.19439,-1.70627 3.58317,-2.90065 2.38878,-1.19439 6.48382,-1.02377 4.60693,0 7.16634,1.53565 2.73003,1.53564 4.09505,3.92442 1.53564,2.21815 2.04752,4.4363 0.51188,2.04752 0.51188,3.58317 0,1.53564 0,1.53564 -0.68251,6.82508 -1.02376,15.01517 -0.34125,8.01947 -0.51188,16.89208 0,8.70197 0,17.74521 0.17063,9.04323 0.34125,18.08646 0.34126,8.8726 0.85314,17.23332 0,0 -0.17063,1.36502 0,1.36502 -1.02376,3.24191 -0.85314,1.70627 -2.90066,3.41254 -1.8769,1.53565 -5.46006,2.04753 -3.92443,0.51188 -7.16634,-1.02376 -3.07128,-1.70627 -4.77755,-3.58317 -1.53565,-1.8769 -1.53565,-1.8769 0,0 -1.87689,-2.04752 -1.8769,-2.04753 -4.94819,-5.63069 -3.07128,-3.7538 -7.16633,-8.36073 -3.92442,-4.77755 -8.1901,-9.72574 -4.26567,-5.11881 -8.53135,-10.06699 -4.26567,-4.94818 -7.84884,-9.38448 -3.58317,-4.43631 -5.97194,-7.50759 -0.17063,6.82508 -0.17063,14.33267 0,7.33696 0.17063,16.03893 0.34125,8.53135 0.6825,19.11023 0,0 -0.34125,1.53564 -0.17063,1.53564 -1.36502,3.58317 -1.19438,1.8769 -3.58316,3.41254 -2.38878,1.36501 -6.65446,1.19439 z"
         id="path1797"
         inkscape:label="n" />
      <path
         d="m 772.8897,339.93668 q -8.70198,-0.34125 -13.47953,-3.92442 -4.60693,-3.58317 -6.14257,-8.36072 -1.02377,-22.35214 -1.19439,-44.02177 -0.17063,-21.84025 1.19439,-42.65675 0.17062,-7.50758 8.36072,-9.89636 8.36072,-2.55941 22.69339,-2.55941 12.96765,0 22.01088,2.21815 9.04323,2.21815 15.35643,6.14258 6.3132,3.75379 10.7495,8.70197 4.60693,4.77756 8.36073,9.72574 9.55511,19.11022 7.67821,35.66104 -1.8769,16.55082 -13.82079,31.22474 -6.9957,7.84885 -16.89207,11.94389 -9.72574,3.92443 -21.32837,5.11881 -11.43201,1.02377 -23.54653,0.68251 z m 6.14257,-25.25279 q 11.43201,0.85313 19.28085,-1.02377 7.84885,-1.87689 12.6264,-5.97194 4.94819,-4.09505 7.33696,-10.23762 2.38878,-6.3132 2.73003,-14.33267 -0.6825,-10.23762 -3.92442,-16.72144 -3.07128,-6.65446 -8.53135,-10.23762 -5.46006,-3.58317 -12.96765,-4.43631 -7.33696,-1.02376 -16.38019,0 -0.68251,15.18581 -0.68251,30.88349 0.17063,15.69768 0.51188,32.07788 z"
         id="path1799"
         inkscape:label="d" />
      <path
         d="m 903.41932,339.25417 q -9.38449,0.34126 -16.55082,-0.51188 -6.99571,-1.02376 -11.94389,-2.5594 -4.77756,-1.70627 -7.16633,-2.73003 -2.38878,-1.19439 -2.38878,-1.19439 0,0 -1.19439,-0.68251 -1.02376,-0.68251 -2.55941,-2.04752 -1.53564,-1.36502 -2.73003,-3.24192 -1.02376,-1.87689 -1.36501,-4.09505 -0.17063,-2.21815 1.19439,-4.94818 1.53564,-2.90066 3.58316,-3.92442 2.21815,-1.19439 4.26568,-1.19439 2.04752,-0.17063 3.41254,0.17063 1.36501,0.17063 1.36501,0.17063 5.97195,2.38877 12.45577,3.41254 6.48383,1.02376 11.94389,0.6825 5.63069,-0.34125 9.38449,-1.87689 3.75379,-1.70627 4.26567,-4.77756 0.34126,-2.38878 -1.36501,-4.26567 -1.53565,-2.04753 -4.94819,-3.7538 -3.24191,-1.8769 -7.67821,-3.58317 -4.4363,-1.87689 -9.55511,-3.92442 -3.07129,-1.19439 -7.16634,-3.75379 -3.92442,-2.55941 -7.67821,-5.97195 -3.75379,-3.58316 -6.48383,-7.84884 -2.73003,-4.4363 -3.92442,-9.38448 -1.02376,-5.11881 0.51188,-10.92013 1.53565,-5.80132 6.48383,-11.77326 5.11881,-6.14257 11.09075,-9.55511 5.97195,-3.58317 12.11452,-5.11881 6.14257,-1.53565 11.60264,-1.70627 5.63069,-0.17063 10.06699,0.34125 4.4363,0.51188 6.99571,1.19439 2.5594,0.68251 2.5594,0.68251 0,0 1.36502,0.51188 1.53564,0.34125 3.58316,1.36501 2.21816,1.02377 4.26568,2.73004 2.04752,1.53564 3.07129,4.09504 1.19438,2.55941 0.85313,5.80132 -0.68251,3.92442 -2.73003,5.63069 -1.8769,1.70627 -4.26568,2.21815 -2.38877,0.34126 -4.09504,0.17063 -1.70627,-0.34125 -1.70627,-0.34125 -6.82508,-2.04753 -13.47954,-1.02377 -6.48382,0.85314 -11.60263,3.58317 -5.11881,2.73003 -7.84885,6.14257 -2.73003,3.24192 -2.04752,6.14257 0.85314,2.55941 4.4363,4.77756 3.7538,2.04752 9.21386,4.4363 5.46006,2.21815 11.26138,4.94819 5.97195,2.5594 10.92013,6.14257 5.11881,3.41254 8.01947,8.01947 4.60693,7.50758 5.11881,13.99141 0.51188,6.48383 -2.21815,11.77326 -2.55941,5.28944 -7.50759,9.04323 -4.77756,3.7538 -10.92013,5.97195 -5.97194,2.21815 -12.28514,2.5594 z"
         id="path1801"
         inkscape:label="s" />
    </g>
  </g>
</svg>
