<?xml version="1.0" encoding="UTF-8" standalone="no"?>
<!-- Created with Inkscape (http://www.inkscape.org/) -->

<svg
   version="1.1"
   id="svg2015"
   width="630"
   height="500"
   viewBox="0 0 630 500"
   sodipodi:docname="cover.svg"
   inkscape:version="1.2.2 (b0a8486541, 2022-12-01)"
   inkscape:export-filename="cover.png"
   inkscape:export-xdpi="96"
   inkscape:export-ydpi="96"
   xmlns:inkscape="http://www.inkscape.org/namespaces/inkscape"
   xmlns:sodipodi="http://sodipodi.sourceforge.net/DTD/sodipodi-0.dtd"
   xmlns:xlink="http://www.w3.org/1999/xlink"
   xmlns="http://www.w3.org/2000/svg"
   xmlns:svg="http://www.w3.org/2000/svg">
  <defs
     id="defs2019" />
  <sodipodi:namedview
     id="namedview2017"
     pagecolor="#ffffff"
     bordercolor="#666666"
     borderopacity="1.0"
     inkscape:showpageshadow="2"
     inkscape:pageopacity="0.0"
     inkscape:pagecheckerboard="0"
     inkscape:deskcolor="#d1d1d1"
     showgrid="false"
     inkscape:zoom="1.1200571"
     inkscape:cx="349.98214"
     inkscape:cy="339.71481"
     inkscape:window-width="1920"
     inkscape:window-height="1043"
     inkscape:window-x="1920"
     inkscape:window-y="0"
     inkscape:window-maximized="1"
     inkscape:current-layer="layer2" />
  <g
     inkscape:groupmode="layer"
     inkscape:label="Background"
     id="g2021">
    <image
       width="630"
       height="500"
       preserveAspectRatio="none"
       xlink:href="cover_bg.png"
       id="image2023" />
  </g>
  <g
     inkscape:groupmode="layer"
     id="layer2"
     inkscape:label="Logo">
    <text
       xml:space="preserve"
       style="font-style:normal;font-variant:normal;font-weight:normal;font-stretch:normal;font-size:54.6682px;line-height:125%;font-family:'Sour Gummy';-inkscape-font-specification:'Sour Gummy';letter-spacing:0px;word-spacing:0px;fill:#000000;fill-opacity:1;stroke:none;stroke-width:1.36669px;stroke-linecap:butt;stroke-linejoin:miter;stroke-opacity:1"
       x="10.598542"
       y="67.934639"
       id="text306"
       inkscape:label="things you can do with"><tspan
         sodipodi:role="line"
         id="tspan304"
         x="10.598542"
         y="67.934639"
         style="stroke-width:1.36669px">THINGS YOU CAN DO WITH</tspan></text>
    <g
       aria-label="TWO HANDS"
       id="text1781"
       style="font-weight:bold;font-size:170.627px;line-height:125%;font-family:'Sour Gummy';-inkscape-font-specification:'Sour Gummy Bold';letter-spacing:0px;word-spacing:0px;fill:#ceeb40;stroke:#000000;stroke-width:5.83683"
       inkscape:label="two hands"
       transform="matrix(0.66431134,0,0,0.66431134,-3.8674713,79.7864)">
      <path
         id="path1787"
         inkscape:label="t"
         d="m 74.578125,228.50586 c -2.630497,0.007 -5.269347,0.0679 -7.914063,0.18164 -10.465112,0.34125 -20.987542,1.13741 -31.566406,2.38867 l -1.365234,0.17188 c -0.796259,0.11375 -1.819049,0.34038 -3.070313,0.68164 -1.251263,0.34125 -2.502642,0.91077 -3.753906,1.70703 -1.137512,0.6825 -2.047961,1.70529 -2.730469,3.07031 -0.568756,1.25127 -0.739221,2.9017 -0.511718,4.94922 0.341253,2.04752 1.025067,3.69601 2.048828,4.94727 1.023761,1.13751 2.217016,2.04795 3.582031,2.73046 1.478766,0.56876 2.90061,1.02399 4.265625,1.36524 1.365015,0.22751 2.5021,0.33984 3.412109,0.33984 h 1.365235 c 4.550049,-0.11375 9.499396,-0.16992 14.845703,-0.16992 0.471055,0 0.961843,0.007 1.435547,0.008 -0.303891,4.04377 -0.560092,8.18335 -0.753906,12.44727 -0.341254,7.50758 -0.511719,15.01586 -0.511719,22.52344 0,7.50758 0.114294,14.78727 0.341797,21.83984 0.341253,7.05257 0.852649,13.6504 1.535156,19.79297 l 0.341797,1.70703 c 0.341253,1.13751 0.966943,2.50318 1.876953,4.0957 0.91001,1.47877 2.21756,2.84249 3.923828,4.09375 1.82002,1.13752 4.208484,1.70703 7.166016,1.70703 2.957531,0.11375 5.233654,-0.34147 6.826172,-1.36523 1.706268,-1.02376 2.899523,-2.16084 3.582031,-3.41211 0.796258,-1.25126 1.251483,-2.3903 1.365234,-3.41406 l 0.341797,-1.53516 c -0.227502,-5.23255 -0.456091,-10.80563 -0.683594,-16.7207 -0.227502,-5.91506 -0.397967,-11.8872 -0.511718,-17.91602 v -18.08593 c 0.113751,-5.91507 0.228045,-11.54627 0.341796,-16.89258 0.120759,-2.8982 0.278034,-5.66795 0.462891,-8.3418 2.085986,0.0965 4.170437,0.19327 6.191406,0.32227 5.460059,0.2275 10.465576,0.56843 15.015629,1.02343 h 1.53515 c 1.13751,-0.11375 2.38889,-0.45467 3.75391,-1.02343 1.47876,-0.56876 2.73015,-1.53538 3.7539,-2.90039 1.02376,-1.36502 1.59328,-3.29826 1.70704,-5.80079 0,-2.04752 -0.51335,-3.81225 -1.53711,-5.29101 -0.91002,-1.59252 -2.0471,-2.8439 -3.41211,-3.75391 -1.36502,-1.02376 -2.78686,-1.81992 -4.26563,-2.38867 -1.36501,-0.56876 -2.56022,-0.96586 -3.583982,-1.19336 L 98.060547,229.883 c -7.763521,-0.93845 -15.590931,-1.39828 -23.482422,-1.37695 z" />
      <path
         id="path1789"
         inkscape:label="w"
         d="m 132.35547,229.0293 c -2.84379,0.11375 -5.06178,0.68327 -6.6543,1.70703 -1.59252,1.02376 -2.7296,2.16085 -3.41211,3.41211 -0.6825,1.25126 -1.08156,2.38835 -1.19531,3.41211 l -0.16992,1.53515 c 1.93377,12.05763 3.81084,23.14958 5.63086,33.27344 1.82002,10.01011 3.75325,18.9964 5.80078,26.95898 2.16127,7.96259 4.66403,14.78705 7.50781,20.47461 2.95754,5.68757 6.48308,10.18169 10.57813,13.48047 4.09504,3.18504 8.98626,5.17445 14.67382,5.97071 3.52629,0.56876 7.10997,-0.34169 10.75,-2.73047 3.75379,-2.38877 7.33747,-6.19908 10.75,-11.43164 3.52629,-5.34631 7.2482,-23.16307 10.31948,-31.12565 0.063,-0.16341 0.12815,-0.67479 0.18359,-0.50782 1.89139,5.69593 3.34574,21.9639 5.536,26.3444 2.95753,5.68757 6.48308,10.18169 10.57812,13.48047 4.09504,3.18504 8.98627,5.17445 14.67383,5.97071 3.52629,0.56876 7.10996,-0.34169 10.75,-2.73047 3.75379,-2.38877 7.33746,-6.19908 10.75,-11.43164 3.52628,-5.34631 6.8252,-12.00031 9.89648,-19.96289 3.07129,-7.96259 5.80068,-17.06318 8.18946,-27.30079 2.50252,-10.35135 4.43576,-21.78228 5.80078,-34.29492 l -0.16992,-1.70703 c -0.11376,-1.25126 -0.56898,-2.6731 -1.36524,-4.26562 -0.6825,-1.59251 -1.93389,-3.07053 -3.7539,-4.43555 -1.82002,-1.47877 -4.54941,-2.50351 -8.18946,-3.07227 -3.07128,-0.455 -5.51787,-0.28454 -7.33789,0.51172 -1.70626,0.79626 -3.01381,1.82101 -3.92383,3.07227 -0.91,1.13751 -1.53569,2.21842 -1.87695,3.24219 l -0.3418,1.53515 c -0.56875,6.59757 -1.47725,13.0811 -2.72851,19.45117 -1.13751,6.37007 -2.44702,12.39838 -3.92578,18.08594 -1.47877,5.68756 -3.01491,10.80737 -4.60742,15.35742 -1.47877,4.55005 -2.90061,8.24607 -4.26563,11.08985 -1.25126,2.84378 -2.33022,4.60655 -3.24023,5.28906 -0.91002,-1.70627 -1.87859,-3.80998 -2.90235,-6.3125 -0.91,-2.50252 -1.9328,-5.5748 -3.07031,-9.21484 -1.02377,-3.75379 -2.16085,-8.01933 -3.41211,-12.79688 -1.13751,-4.8913 -2.38889,-10.40821 -3.75391,-16.55078 -1.25126,-6.25632 -2.61693,-13.25125 -4.0957,-20.98633 -0.11375,-1.25126 -0.56897,-2.6731 -1.36523,-4.26562 -0.68251,-1.59251 -1.93388,-3.07053 -3.75391,-4.43555 -0.96812,-0.7866 -2.21221,-1.43573 -3.69531,-1.96484 -1.41344,-0.96321 -2.9079,-1.52 -4.49414,-1.61914 -1.34556,0 -2.5443,0.10656 -3.63086,0.29492 -1.42775,0.0505 -2.67872,0.27863 -3.70703,0.72851 -1.70627,0.68251 -3.01383,1.59296 -3.92383,2.73047 -0.91001,1.13751 -1.5357,2.21843 -1.87695,3.24219 l -0.3418,1.36523 c -0.56876,6.59757 -1.47725,13.13728 -2.72852,19.6211 -1.13751,6.37006 -2.44701,12.4565 -3.92578,18.25781 -1.47876,5.68756 -3.01295,10.86354 -4.60547,15.52734 -1.47876,4.55005 -2.90061,8.24607 -4.26562,11.08985 -1.25127,2.84378 -2.33218,4.60655 -3.24219,5.28906 -0.91001,-1.70627 -1.87663,-3.86614 -2.90039,-6.48242 -0.91001,-2.61628 -1.99092,-5.85902 -3.24219,-9.72656 -1.13751,-3.86754 -2.33272,-8.30354 -3.58398,-13.3086 -1.25127,-5.00505 -2.55882,-10.69243 -3.92383,-17.0625 -1.36502,-6.37007 -2.78686,-13.36695 -4.26562,-20.98828 l -0.6836,-1.70508 c -0.34125,-1.13751 -1.02311,-2.44701 -2.04687,-3.92578 -1.02376,-1.47876 -2.50178,-2.72819 -4.43555,-3.75195 -1.82003,-1.13751 -4.26661,-1.70703 -7.33789,-1.70703 z"
         sodipodi:nodetypes="csscccccccccsscccccscccccccccccsccccccccccccccscccccccccssccscc" />
      <path
         d="m 325.67606,340.78982 q -10.74951,0 -19.62211,-3.92442 -8.8726,-3.92442 -15.35643,-10.92013 -6.3132,-7.16634 -9.55511,-16.72145 -3.24191,-9.72574 -2.55941,-21.32837 0.51188,-11.60264 4.60693,-22.35214 4.09505,-10.7495 11.09076,-19.28085 7.16633,-8.53135 16.72144,-13.47953 9.72574,-5.11881 21.32838,-5.11881 8.70198,0 17.57458,1.87689 8.8726,1.70627 16.72144,5.97195 8.01947,4.09505 14.16205,10.92013 6.31319,6.82508 9.55511,16.89207 3.24191,9.89637 2.5594,23.3759 -0.51188,10.92013 -4.94818,19.6221 -4.26568,8.53135 -11.26138,15.01518 -6.82508,6.48383 -15.52706,10.92013 -8.53135,4.26567 -17.74521,6.48382 -9.04323,2.04753 -17.7452,2.04753 z m 5.11881,-25.42343 q 4.4363,0 9.04323,-1.19438 4.60693,-1.19439 8.8726,-3.7538 4.26568,-2.5594 7.67822,-6.3132 3.41254,-3.92442 5.63069,-9.04323 2.21815,-5.28944 2.38877,-11.77326 0.51188,-8.70198 -1.87689,-14.67392 -2.38878,-5.97195 -6.65446,-9.55512 -4.26567,-3.75379 -9.72573,-5.28943 -5.46007,-1.70627 -11.09076,-1.70627 -5.46006,0 -10.40825,2.73003 -4.94818,2.5594 -8.8726,7.33696 -3.75379,4.60693 -6.14257,10.92013 -2.21815,6.14257 -2.55941,12.96765 -0.51188,9.21386 2.38878,15.86831 2.90066,6.48383 8.36072,10.06699 5.46007,3.41254 12.96766,3.41254 z"
         id="path1791"
         inkscape:label="o" />
      <path
         id="path1793"
         inkscape:label="h"
         d="m 463.20117,228.6875 c -2.84378,0 -5.06178,0.5114 -6.65429,1.53516 -1.59252,0.91001 -2.7296,1.99092 -3.41211,3.24218 -0.68251,1.13752 -1.13774,2.21843 -1.36524,3.24219 l -0.16992,1.36524 c -0.45501,5.46006 -0.85406,11.26173 -1.19531,17.40429 -0.34126,6.14257 -0.62602,12.45564 -0.85352,18.93946 -0.11375,6.37007 -0.11375,12.68314 0,18.93945 0.11375,6.25632 0.28421,12.28463 0.51172,18.08594 0.34125,5.80131 0.74031,11.14776 1.19531,16.03906 l 0.3418,1.70703 c 0.34125,1.13751 0.96694,2.50318 1.87695,4.0957 0.91001,1.47877 2.21756,2.84249 3.92383,4.09375 1.82002,1.13752 4.20849,1.70703 7.16602,1.70703 3.07128,0.11375 5.40357,-0.34147 6.99609,-1.36523 1.70627,-1.02376 2.89953,-2.16084 3.58203,-3.41211 0.79626,-1.25126 1.25149,-2.3903 1.36524,-3.41406 l 0.17187,-1.53516 c -0.2275,-5.23255 -0.45609,-10.80563 -0.68359,-16.7207 -0.11165,-2.95868 -0.20872,-5.9319 -0.29297,-8.91797 l 40.74414,-2.51367 c 0.0931,3.48035 0.19947,6.90593 0.33008,10.23633 0.34126,5.80131 0.73836,11.14776 1.19336,16.03906 l 0.34179,1.70703 c 0.34126,1.13751 0.96695,2.50318 1.87696,4.0957 1.02376,1.47877 2.38748,2.84249 4.09375,4.09375 1.82001,1.13752 4.15231,1.70703 6.99609,1.70703 3.07128,0.11375 5.40358,-0.34147 6.99609,-1.36523 1.70627,-1.02376 2.90148,-2.16084 3.58399,-3.41211 0.79626,-1.25126 1.25148,-2.3903 1.36523,-3.41406 l 0.16992,-1.53516 c -0.2275,-5.23255 -0.45609,-10.80563 -0.68359,-16.7207 -0.22751,-6.02882 -0.39797,-12.11525 -0.51172,-18.25781 v -18.08594 c 0.11375,-6.02882 0.28421,-11.77432 0.51172,-17.23438 0.2275,-5.46005 0.57039,-10.52174 1.02539,-15.18554 v -1.53516 c 0,-1.02376 -0.17046,-2.27514 -0.51172,-3.75391 -0.34125,-1.47877 -1.02507,-2.95678 -2.04883,-4.43554 -0.91001,-1.47877 -2.27373,-2.73015 -4.09375,-3.75391 -1.70627,-1.02376 -4.09668,-1.59328 -7.16796,-1.70703 -2.84378,0 -5.06178,0.5114 -6.6543,1.53516 -1.47877,0.91001 -2.61585,1.99092 -3.41211,3.24218 -0.68251,1.13752 -1.13773,2.21843 -1.36523,3.24219 l -0.16993,1.36524 c -0.455,5.46006 -0.85406,11.26173 -1.19531,17.40429 -0.34125,6.14257 -0.62601,12.45564 -0.85352,18.93946 -0.0169,0.94701 -0.0135,1.88362 -0.0254,2.82812 l -40.7539,2.95898 v -3.91015 c 0.11375,-6.02882 0.28422,-11.77432 0.51172,-17.23438 0.2275,-5.46005 0.56843,-10.52174 1.02343,-15.18554 v -1.53516 c 0,-1.02376 -0.17046,-2.27514 -0.51171,-3.75391 -0.34126,-1.47877 -1.02312,-2.95678 -2.04688,-4.43554 -0.91001,-1.47877 -2.27568,-2.73015 -4.0957,-3.75391 -1.82002,-1.02376 -4.20849,-1.59328 -7.16602,-1.70703 z" />
      <path
         id="path1795"
         inkscape:label="a"
         d="m 598.125,229.76562 c -0.51188,-0.007 -1.00874,0.0319 -1.49219,0.11719 -2.61627,0 -5.17715,0.45523 -7.67969,1.36524 -2.38877,0.79626 -4.89153,2.50091 -7.50781,5.11718 -2.61627,2.50254 -5.34567,6.3148 -8.18945,11.4336 -2.73003,5.11881 -5.68802,11.99944 -8.87305,20.64453 -3.07128,9.89636 -5.7445,19.67881 -8.01953,29.34766 -2.16128,9.5551 -3.41265,18.99661 -3.7539,28.32421 l 0.17187,1.87696 c 0.11375,1.13751 0.56898,2.55935 1.36523,4.26562 0.79626,1.70627 2.10381,3.29858 3.92383,4.77735 1.82002,1.36501 4.43708,2.27546 7.84961,2.73046 3.07129,0.34126 5.51592,0.11462 7.33594,-0.68164 1.82002,-0.79625 3.18569,-1.821 4.0957,-3.07226 0.91001,-1.25127 1.47757,-2.33218 1.70508,-3.24219 l 0.51172,-1.53515 c 0.36814,-3.49731 0.67312,-6.29445 0.9668,-8.97266 0.19336,-0.0211 0.37518,-0.0503 0.57031,-0.0703 4.4363,-0.455 9.04276,-0.62547 13.82031,-0.51172 4.8913,0 9.66823,0.22663 14.33203,0.68164 1.07441,0.0786 2.12588,0.1689 3.16407,0.26562 0.4195,2.16763 0.81646,4.24306 1.27343,6.56055 l 0.51172,1.70508 c 0.45501,1.02376 1.19304,2.33326 2.2168,3.92578 1.13751,1.47876 2.67365,2.78632 4.60742,3.92383 1.93377,1.02376 4.38036,1.53515 7.33789,1.53515 2.95753,0 5.17553,-0.51139 6.6543,-1.53515 1.59252,-1.02376 2.7296,-2.16085 3.41211,-3.41211 0.68251,-1.36501 1.02343,-2.56023 1.02343,-3.58399 l 0.17188,-1.53515 c -0.68251,-7.39383 -1.70725,-14.67352 -3.07227,-21.83985 -1.25126,-7.16632 -2.72928,-13.99274 -4.43554,-20.47656 -1.59252,-6.48382 -3.18483,-12.28353 -4.77735,-17.40234 -1.59252,-5.1188 -2.95819,-9.272 -4.0957,-12.45703 -1.25127,-4.6638 -3.01404,-8.81504 -5.28906,-12.45508 -2.16127,-3.64004 -4.55169,-6.65419 -7.16797,-9.04297 -2.61628,-2.50252 -5.17521,-4.32343 -7.67774,-5.46094 -1.79158,-0.85313 -3.45459,-1.28922 -4.99023,-1.31055 z m -0.98047,32.02344 c 1.59252,4.09505 3.07054,8.53105 4.43555,13.3086 1.47876,4.6638 3.0149,10.18071 4.60742,16.55078 0.86795,2.99836 1.67706,6.52426 2.43555,10.50781 -2.03882,-0.0213 -4.05439,-0.01 -6.01953,0.0723 -5.34631,0.11374 -10.57846,0.51085 -15.69727,1.19336 -1.12601,0.15354 -2.26297,0.32743 -3.40625,0.50976 0.11443,-0.57354 0.21233,-1.11513 0.33398,-1.70312 0.79626,-3.29879 1.70671,-7.33769 2.73047,-12.11524 0.79626,-3.07128 1.76288,-6.31207 2.90039,-9.72461 1.25126,-3.41253 2.56077,-6.71145 3.92578,-9.89648 1.36502,-3.29879 2.6164,-6.2006 3.75391,-8.70313 z" />
      <path
         d="m 662.32348,339.08355 q -4.09504,-0.34126 -6.65445,-1.8769 -2.5594,-1.53564 -4.09505,-3.58317 -1.53564,-2.21815 -2.04752,-3.58316 -0.34125,-1.53565 -0.34125,-1.53565 -1.02377,-9.21385 -1.36502,-19.28085 -0.34125,-10.23762 -0.34125,-20.47524 0.17062,-10.40824 0.51188,-20.47524 0.34125,-10.06699 0.85313,-19.45147 0,0 0.34126,-1.8769 0.34125,-1.8769 2.21815,-4.09505 1.87689,-2.38878 5.97194,-3.41254 2.38878,-0.85313 4.94818,-0.34125 2.73004,0.51188 4.77756,1.36501 2.04752,0.68251 2.21815,1.02376 6.14257,5.97195 13.47953,14.16205 7.33697,8.01946 15.35643,17.7452 8.1901,9.55511 16.55082,20.13399 -0.17062,-5.97195 -0.34125,-12.28515 -0.17063,-6.48382 0,-13.3089 0.17063,-6.82508 0.51188,-14.5033 0.34125,-7.67821 1.02376,-16.38019 0,0 0.34126,-1.19439 0.34125,-1.36501 1.36501,-2.90066 1.19439,-1.70627 3.58317,-2.90065 2.38878,-1.19439 6.48382,-1.02377 4.60693,0 7.16634,1.53565 2.73003,1.53564 4.09505,3.92442 1.53564,2.21815 2.04752,4.4363 0.51188,2.04752 0.51188,3.58317 0,1.53564 0,1.53564 -0.68251,6.82508 -1.02376,15.01517 -0.34125,8.01947 -0.51188,16.89208 0,8.70197 0,17.74521 0.17063,9.04323 0.34125,18.08646 0.34126,8.8726 0.85314,17.23332 0,0 -0.17063,1.36502 0,1.36502 -1.02376,3.24191 -0.85314,1.70627 -2.90066,3.41254 -1.8769,1.53565 -5.46006,2.04753 -3.92443,0.51188 -7.16634,-1.02376 -3.07128,-1.70627 -4.77755,-3.58317 -1.53565,-1.8769 -1.53565,-1.8769 0,0 -1.87689,-2.04752 -1.8769,-2.04753 -4.94819,-5.63069 -3.07128,-3.7538 -7.16633,-8.36073 -3.92442,-4.77755 -8.1901,-9.72574 -4.26567,-5.11881 -8.53135,-10.06699 -4.26567,-4.94818 -7.84884,-9.38448 -3.58317,-4.43631 -5.97194,-7.50759 -0.17063,6.82508 -0.17063,14.33267 0,7.33696 0.17063,16.03893 0.34125,8.53135 0.6825,19.11023 0,0 -0.34125,1.53564 -0.17063,1.53564 -1.36502,3.58317 -1.19438,1.8769 -3.58316,3.41254 -2.38878,1.36501 -6.65446,1.19439 z"
         id="path1797"
         inkscape:label="n" />
      <path
         d="m 772.8897,339.93668 q -8.70198,-0.34125 -13.47953,-3.92442 -4.60693,-3.58317 -6.14257,-8.36072 -1.02377,-22.35214 -1.19439,-44.02177 -0.17063,-21.84025 1.19439,-42.65675 0.17062,-7.50758 8.36072,-9.89636 8.36072,-2.55941 22.69339,-2.55941 12.96765,0 22.01088,2.21815 9.04323,2.21815 15.35643,6.14258 6.3132,3.75379 10.7495,8.70197 4.60693,4.77756 8.36073,9.72574 9.55511,19.11022 7.67821,35.66104 -1.8769,16.55082 -13.82079,31.22474 -6.9957,7.84885 -16.89207,11.94389 -9.72574,3.92443 -21.32837,5.11881 -11.43201,1.02377 -23.54653,0.68251 z m 6.14257,-25.25279 q 11.43201,0.85313 19.28085,-1.02377 7.84885,-1.87689 12.6264,-5.97194 4.94819,-4.09505 7.33696,-10.23762 2.38878,-6.3132 2.73003,-14.33267 -0.6825,-10.23762 -3.92442,-16.72144 -3.07128,-6.65446 -8.53135,-10.23762 -5.46006,-3.58317 -12.96765,-4.43631 -7.33696,-1.02376 -16.38019,0 -0.68251,15.18581 -0.68251,30.88349 0.17063,15.69768 0.51188,32.07788 z"
         id="path1799"
         inkscape:label="d" />
      <path
         d="m 903.41932,339.25417 q -9.38449,0.34126 -16.55082,-0.51188 -6.99571,-1.02376 -11.94389,-2.5594 -4.77756,-1.70627 -7.16633,-2.73003 -2.38878,-1.19439 -2.38878,-1.19439 0,0 -1.19439,-0.68251 -1.02376,-0.68251 -2.55941,-2.04752 -1.53564,-1.36502 -2.73003,-3.24192 -1.02376,-1.87689 -1.36501,-4.09505 -0.17063,-2.21815 1.19439,-4.94818 1.53564,-2.90066 3.58316,-3.92442 2.21815,-1.19439 4.26568,-1.19439 2.04752,-0.17063 3.41254,0.17063 1.36501,0.17063 1.36501,0.17063 5.97195,2.38877 12.45577,3.41254 6.48383,1.02376 11.94389,0.6825 5.63069,-0.34125 9.38449,-1.87689 3.75379,-1.70627 4.26567,-4.77756 0.34126,-2.38878 -1.36501,-4.26567 -1.53565,-2.04753 -4.94819,-3.7538 -3.24191,-1.8769 -7.67821,-3.58317 -4.4363,-1.87689 -9.55511,-3.92442 -3.07129,-1.19439 -7.16634,-3.75379 -3.92442,-2.55941 -7.67821,-5.97195 -3.75379,-3.58316 -6.48383,-7.84884 -2.73003,-4.4363 -3.92442,-9.38448 -1.02376,-5.11881 0.51188,-10.92013 1.53565,-5.80132 6.48383,-11.77326 5.11881,-6.14257 11.09075,-9.55511 5.97195,-3.58317 12.11452,-5.11881 6.14257,-1.53565 11.60264,-1.70627 5.63069,-0.17063 10.06699,0.34125 4.4363,0.51188 6.99571,1.19439 2.5594,0.68251 2.5594,0.68251 0,0 1.36502,0.51188 1.53564,0.34125 3.58316,1.36501 2.21816,1.02377 4.26568,2.73004 2.04752,1.53564 3.07129,4.09504 1.19438,2.55941 0.85313,5.80132 -0.68251,3.92442 -2.73003,5.63069 -1.8769,1.70627 -4.26568,2.21815 -2.38877,0.34126 -4.09504,0.17063 -1.70627,-0.34125 -1.70627,-0.34125 -6.82508,-2.04753 -13.47954,-1.02377 -6.48382,0.85314 -11.60263,3.58317 -5.11881,2.73003 -7.84885,6.14257 -2.73003,3.24192 -2.04752,6.14257 0.85314,2.55941 4.4363,4.77756 3.7538,2.04752 9.21386,4.4363 5.46006,2.21815 11.26138,4.94819 5.97195,2.5594 10.92013,6.14257 5.11881,3.41254 8.01947,8.01947 4.60693,7.50758 5.11881,13.99141 0.51188,6.48383 -2.21815,11.77326 -2.55941,5.28944 -7.50759,9.04323 -4.77756,3.7538 -10.92013,5.97195 -5.97194,2.21815 -12.28514,2.5594 z"
         id="path1801"
         inkscape:label="s" />
    </g>
  </g>
</svg>
