<?xml version="1.0" encoding="UTF-8" standalone="no"?>
<!-- Created with Inkscape (http://www.inkscape.org/) -->

<svg
   version="1.1"
   id="svg2204"
   width="1280"
   height="720"
   viewBox="0 0 1280 720"
   sodipodi:docname="splash.svg"
   inkscape:version="1.2.2 (b0a8486541, 2022-12-01)"
   xml:space="preserve"
   inkscape:export-filename="../images/splash.png"
   inkscape:export-xdpi="96"
   inkscape:export-ydpi="96"
   xmlns:inkscape="http://www.inkscape.org/namespaces/inkscape"
   xmlns:sodipodi="http://sodipodi.sourceforge.net/DTD/sodipodi-0.dtd"
   xmlns:xlink="http://www.w3.org/1999/xlink"
   xmlns="http://www.w3.org/2000/svg"
   xmlns:svg="http://www.w3.org/2000/svg"><defs
     id="defs2208"><filter
       inkscape:menu-tooltip="Darkens the edge with an inner blur and adds a flexible glow"
       inkscape:menu="Shadows and Glows"
       inkscape:label="Drop Shadow"
       style="color-interpolation-filters:sRGB;"
       id="filter2345"
       x="-0.042071129"
       y="-0.55303287"
       width="1.0994807"
       height="2.3076923"><feOffset
         dy="3"
         dx="3"
         id="feOffset2335" /><feGaussianBlur
         stdDeviation="3"
         result="blur"
         id="feGaussianBlur2337" /><feFlood
         flood-color="rgb(0,0,0)"
         flood-opacity="1"
         result="flood"
         id="feFlood2339" /><feComposite
         in="flood"
         in2="SourceGraphic"
         operator="in"
         result="composite"
         id="feComposite2341" /><feBlend
         in="blur"
         in2="composite"
         mode="normal"
         id="feBlend2343"
         result="fbSourceGraphic" /><feColorMatrix
         result="fbSourceGraphicAlpha"
         in="fbSourceGraphic"
         values="0 0 0 -1 0 0 0 0 -1 0 0 0 0 -1 0 0 0 0 1 0"
         id="feColorMatrix2347" /><feGaussianBlur
         id="feGaussianBlur2349"
         stdDeviation="5"
         result="result6"
         in="fbSourceGraphic" /><feComposite
         in2="result6"
         id="feComposite2351"
         result="result8"
         in="fbSourceGraphic"
         operator="atop" /><feComposite
         in2="fbSourceGraphicAlpha"
         id="feComposite2353"
         result="result9"
         operator="over"
         in="result8" /><feColorMatrix
         id="feColorMatrix2355"
         values="1 0 0 0 0 0 1 0 0 0 0 0 1 0 0 0 0 0 1 0 "
         result="result10" /><feBlend
         in2="result6"
         id="feBlend2357"
         in="result10"
         mode="normal"
         result="fbSourceGraphic" /><feColorMatrix
         result="fbSourceGraphicAlpha"
         in="fbSourceGraphic"
         values="0 0 0 -1 0 0 0 0 -1 0 0 0 0 -1 0 0 0 0 1 0"
         id="feColorMatrix2359" /><feFlood
         id="feFlood2361"
         flood-opacity="0.498039"
         flood-color="rgb(0,0,0)"
         result="flood"
         in="fbSourceGraphic" /><feComposite
         in2="fbSourceGraphic"
         id="feComposite2363"
         in="flood"
         operator="in"
         result="composite1" /><feGaussianBlur
         id="feGaussianBlur2365"
         in="composite1"
         stdDeviation="0"
         result="blur" /><feOffset
         id="feOffset2367"
         dx="4"
         dy="4"
         result="offset" /><feComposite
         in2="offset"
         id="feComposite2369"
         in="fbSourceGraphic"
         operator="over"
         result="composite2" /></filter><filter
       style="color-interpolation-filters:sRGB;"
       inkscape:label="Drop Shadow"
       id="filter2453"
       x="-0.015776673"
       y="-0.20738733"
       width="1.0403182"
       height="1.5299898"><feFlood
         flood-opacity="0.498039"
         flood-color="rgb(0,0,0)"
         result="flood"
         id="feFlood2443" /><feComposite
         in="flood"
         in2="SourceGraphic"
         operator="in"
         result="composite1"
         id="feComposite2445" /><feGaussianBlur
         in="composite1"
         stdDeviation="3"
         result="blur"
         id="feGaussianBlur2447" /><feOffset
         dx="4"
         dy="4"
         result="offset"
         id="feOffset2449" /><feComposite
         in="SourceGraphic"
         in2="offset"
         operator="over"
         result="composite2"
         id="feComposite2451" /></filter><filter
       style="color-interpolation-filters:sRGB;"
       inkscape:label="Drop Shadow"
       id="filter4311"
       x="-0.01818855"
       y="-0.12199214"
       width="1.0464818"
       height="1.2004157"><feFlood
         flood-opacity="0.498039"
         flood-color="rgb(0,0,0)"
         result="flood"
         id="feFlood4301" /><feComposite
         in="flood"
         in2="SourceGraphic"
         operator="in"
         result="composite1"
         id="feComposite4303" /><feGaussianBlur
         in="composite1"
         stdDeviation="3"
         result="blur"
         id="feGaussianBlur4305" /><feOffset
         dx="4"
         dy="-4"
         result="offset"
         id="feOffset4307" /><feComposite
         in="SourceGraphic"
         in2="offset"
         operator="over"
         result="composite2"
         id="feComposite4309" /></filter><filter
       style="color-interpolation-filters:sRGB;"
       inkscape:label="Drop Shadow"
       id="filter4323"
       x="-0.02750202"
       y="-0.21219463"
       width="1.0702829"
       height="1.3486055"><feFlood
         flood-opacity="0.498039"
         flood-color="rgb(0,0,0)"
         result="flood"
         id="feFlood4313" /><feComposite
         in="flood"
         in2="SourceGraphic"
         operator="in"
         result="composite1"
         id="feComposite4315" /><feGaussianBlur
         in="composite1"
         stdDeviation="3"
         result="blur"
         id="feGaussianBlur4317" /><feOffset
         dx="4"
         dy="-4"
         result="offset"
         id="feOffset4319" /><feComposite
         in="SourceGraphic"
         in2="offset"
         operator="over"
         result="composite2"
         id="feComposite4321" /></filter><filter
       style="color-interpolation-filters:sRGB;"
       inkscape:label="Drop Shadow"
       id="filter4335"
       x="-0.011397958"
       y="-0.060200551"
       width="1.0291281"
       height="1.0989009"><feFlood
         flood-opacity="0.498039"
         flood-color="rgb(0,0,0)"
         result="flood"
         id="feFlood4325" /><feComposite
         in="flood"
         in2="SourceGraphic"
         operator="in"
         result="composite1"
         id="feComposite4327" /><feGaussianBlur
         in="composite1"
         stdDeviation="3"
         result="blur"
         id="feGaussianBlur4329" /><feOffset
         dx="4"
         dy="-4"
         result="offset"
         id="feOffset4331" /><feComposite
         in="SourceGraphic"
         in2="offset"
         operator="over"
         result="composite2"
         id="feComposite4333" /></filter></defs><sodipodi:namedview
     id="namedview2206"
     pagecolor="#ffffff"
     bordercolor="#666666"
     borderopacity="1.0"
     inkscape:showpageshadow="2"
     inkscape:pageopacity="0.0"
     inkscape:pagecheckerboard="0"
     inkscape:deskcolor="#d1d1d1"
     showgrid="false"
     inkscape:zoom="0.76849898"
     inkscape:cx="641.51028"
     inkscape:cy="379.31085"
     inkscape:window-width="1920"
     inkscape:window-height="1043"
     inkscape:window-x="1920"
     inkscape:window-y="0"
     inkscape:window-maximized="1"
     inkscape:current-layer="layer5" /><g
     inkscape:groupmode="layer"
     inkscape:label="Background"
     id="g2210"><image
       width="1280"
       height="720"
       preserveAspectRatio="none"
       xlink:href="splash_bg.png"
       id="image2212" /></g><g
     inkscape:groupmode="layer"
     id="layer3"
     inkscape:label="Logo"><text
       xml:space="preserve"
       style="font-style:normal;font-variant:normal;font-weight:normal;font-stretch:normal;font-size:93.048px;line-height:125%;font-family:'Sour Gummy';-inkscape-font-specification:'Sour Gummy';letter-spacing:0px;word-spacing:0px;fill:#000000;fill-opacity:1;stroke:none;stroke-width:2.32619px;stroke-linecap:butt;stroke-linejoin:miter;stroke-opacity:1"
       x="121.89362"
       y="90.211166"
       id="text306"
       inkscape:label="things you can do with"><tspan
         sodipodi:role="line"
         id="tspan304"
         x="121.89362"
         y="90.211166"
         style="stroke-width:2.32619px">THINGS YOU CAN DO WITH</tspan></text><g
       aria-label="TWO HANDS"
       id="text1781"
       style="font-weight:bold;font-size:170.627px;line-height:125%;font-family:'Sour Gummy';-inkscape-font-specification:'Sour Gummy Bold';letter-spacing:0px;word-spacing:0px;fill:#ceeb40;stroke:#000000;stroke-width:5.83683"
       inkscape:label="two hands"
       transform="matrix(1.1306914,0,0,1.1306914,97.271484,65.269173)"><path
         id="path1787"
         inkscape:label="t"
         d="m 74.578125,228.50586 c -2.630497,0.007 -5.269347,0.0679 -7.914063,0.18164 -10.465112,0.34125 -20.987542,1.13741 -31.566406,2.38867 l -1.365234,0.17188 c -0.796259,0.11375 -1.819049,0.34038 -3.070313,0.68164 -1.251263,0.34125 -2.502642,0.91077 -3.753906,1.70703 -1.137512,0.6825 -2.047961,1.70529 -2.730469,3.07031 -0.568756,1.25127 -0.739221,2.9017 -0.511718,4.94922 0.341253,2.04752 1.025067,3.69601 2.048828,4.94727 1.023761,1.13751 2.217016,2.04795 3.582031,2.73046 1.478766,0.56876 2.90061,1.02399 4.265625,1.36524 1.365015,0.22751 2.5021,0.33984 3.412109,0.33984 h 1.365235 c 4.550049,-0.11375 9.499396,-0.16992 14.845703,-0.16992 0.471055,0 0.961843,0.007 1.435547,0.008 -0.303891,4.04377 -0.560092,8.18335 -0.753906,12.44727 -0.341254,7.50758 -0.511719,15.01586 -0.511719,22.52344 0,7.50758 0.114294,14.78727 0.341797,21.83984 0.341253,7.05257 0.852649,13.6504 1.535156,19.79297 l 0.341797,1.70703 c 0.341253,1.13751 0.966943,2.50318 1.876953,4.0957 0.91001,1.47877 2.21756,2.84249 3.923828,4.09375 1.82002,1.13752 4.208484,1.70703 7.166016,1.70703 2.957531,0.11375 5.233654,-0.34147 6.826172,-1.36523 1.706268,-1.02376 2.899523,-2.16084 3.582031,-3.41211 0.796258,-1.25126 1.251483,-2.3903 1.365234,-3.41406 l 0.341797,-1.53516 c -0.227502,-5.23255 -0.456091,-10.80563 -0.683594,-16.7207 -0.227502,-5.91506 -0.397967,-11.8872 -0.511718,-17.91602 v -18.08593 c 0.113751,-5.91507 0.228045,-11.54627 0.341796,-16.89258 0.120759,-2.8982 0.278034,-5.66795 0.462891,-8.3418 2.085986,0.0965 4.170437,0.19327 6.191406,0.32227 5.460059,0.2275 10.465576,0.56843 15.015629,1.02343 h 1.53515 c 1.13751,-0.11375 2.38889,-0.45467 3.75391,-1.02343 1.47876,-0.56876 2.73015,-1.53538 3.7539,-2.90039 1.02376,-1.36502 1.59328,-3.29826 1.70704,-5.80079 0,-2.04752 -0.51335,-3.81225 -1.53711,-5.29101 -0.91002,-1.59252 -2.0471,-2.8439 -3.41211,-3.75391 -1.36502,-1.02376 -2.78686,-1.81992 -4.26563,-2.38867 -1.36501,-0.56876 -2.56022,-0.96586 -3.583982,-1.19336 L 98.060547,229.883 c -7.763521,-0.93845 -15.590931,-1.39828 -23.482422,-1.37695 z" /><path
         id="path1789"
         inkscape:label="w"
         d="m 132.35547,229.0293 c -2.84379,0.11375 -5.06178,0.68327 -6.6543,1.70703 -1.59252,1.02376 -2.7296,2.16085 -3.41211,3.41211 -0.6825,1.25126 -1.08156,2.38835 -1.19531,3.41211 l -0.16992,1.53515 c 1.93377,12.05763 3.81084,23.14958 5.63086,33.27344 1.82002,10.01011 3.75325,18.9964 5.80078,26.95898 2.16127,7.96259 4.66403,14.78705 7.50781,20.47461 2.95754,5.68757 6.48308,10.18169 10.57813,13.48047 4.09504,3.18504 8.98626,5.17445 14.67382,5.97071 3.52629,0.56876 7.10997,-0.34169 10.75,-2.73047 3.75379,-2.38877 7.33747,-6.19908 10.75,-11.43164 3.52629,-5.34631 7.2482,-23.16307 10.31948,-31.12565 0.063,-0.16341 0.12815,-0.67479 0.18359,-0.50782 1.89139,5.69593 3.34574,21.9639 5.536,26.3444 2.95753,5.68757 6.48308,10.18169 10.57812,13.48047 4.09504,3.18504 8.98627,5.17445 14.67383,5.97071 3.52629,0.56876 7.10996,-0.34169 10.75,-2.73047 3.75379,-2.38877 7.33746,-6.19908 10.75,-11.43164 3.52628,-5.34631 6.8252,-12.00031 9.89648,-19.96289 3.07129,-7.96259 5.80068,-17.06318 8.18946,-27.30079 2.50252,-10.35135 4.43576,-21.78228 5.80078,-34.29492 l -0.16992,-1.70703 c -0.11376,-1.25126 -0.56898,-2.6731 -1.36524,-4.26562 -0.6825,-1.59251 -1.93389,-3.07053 -3.7539,-4.43555 -1.82002,-1.47877 -4.54941,-2.50351 -8.18946,-3.07227 -3.07128,-0.455 -5.51787,-0.28454 -7.33789,0.51172 -1.70626,0.79626 -3.01381,1.82101 -3.92383,3.07227 -0.91,1.13751 -1.53569,2.21842 -1.87695,3.24219 l -0.3418,1.53515 c -0.56875,6.59757 -1.47725,13.0811 -2.72851,19.45117 -1.13751,6.37007 -2.44702,12.39838 -3.92578,18.08594 -1.47877,5.68756 -3.01491,10.80737 -4.60742,15.35742 -1.47877,4.55005 -2.90061,8.24607 -4.26563,11.08985 -1.25126,2.84378 -2.33022,4.60655 -3.24023,5.28906 -0.91002,-1.70627 -1.87859,-3.80998 -2.90235,-6.3125 -0.91,-2.50252 -1.9328,-5.5748 -3.07031,-9.21484 -1.02377,-3.75379 -2.16085,-8.01933 -3.41211,-12.79688 -1.13751,-4.8913 -2.38889,-10.40821 -3.75391,-16.55078 -1.25126,-6.25632 -2.61693,-13.25125 -4.0957,-20.98633 -0.11375,-1.25126 -0.56897,-2.6731 -1.36523,-4.26562 -0.68251,-1.59251 -1.93388,-3.07053 -3.75391,-4.43555 -0.96812,-0.7866 -2.21221,-1.43573 -3.69531,-1.96484 -1.41344,-0.96321 -2.9079,-1.52 -4.49414,-1.61914 -1.34556,0 -2.5443,0.10656 -3.63086,0.29492 -1.42775,0.0505 -2.67872,0.27863 -3.70703,0.72851 -1.70627,0.68251 -3.01383,1.59296 -3.92383,2.73047 -0.91001,1.13751 -1.5357,2.21843 -1.87695,3.24219 l -0.3418,1.36523 c -0.56876,6.59757 -1.47725,13.13728 -2.72852,19.6211 -1.13751,6.37006 -2.44701,12.4565 -3.92578,18.25781 -1.47876,5.68756 -3.01295,10.86354 -4.60547,15.52734 -1.47876,4.55005 -2.90061,8.24607 -4.26562,11.08985 -1.25127,2.84378 -2.33218,4.60655 -3.24219,5.28906 -0.91001,-1.70627 -1.87663,-3.86614 -2.90039,-6.48242 -0.91001,-2.61628 -1.99092,-5.85902 -3.24219,-9.72656 -1.13751,-3.86754 -2.33272,-8.30354 -3.58398,-13.3086 -1.25127,-5.00505 -2.55882,-10.69243 -3.92383,-17.0625 -1.36502,-6.37007 -2.78686,-13.36695 -4.26562,-20.98828 l -0.6836,-1.70508 c -0.34125,-1.13751 -1.02311,-2.44701 -2.04687,-3.92578 -1.02376,-1.47876 -2.50178,-2.72819 -4.43555,-3.75195 -1.82003,-1.13751 -4.26661,-1.70703 -7.33789,-1.70703 z"
         sodipodi:nodetypes="csscccccccccsscccccscccccccccccsccccccccccccccscccccccccssccscc" /><path
         d="m 325.67606,340.78982 q -10.74951,0 -19.62211,-3.92442 -8.8726,-3.92442 -15.35643,-10.92013 -6.3132,-7.16634 -9.55511,-16.72145 -3.24191,-9.72574 -2.55941,-21.32837 0.51188,-11.60264 4.60693,-22.35214 4.09505,-10.7495 11.09076,-19.28085 7.16633,-8.53135 16.72144,-13.47953 9.72574,-5.11881 21.32838,-5.11881 8.70198,0 17.57458,1.87689 8.8726,1.70627 16.72144,5.97195 8.01947,4.09505 14.16205,10.92013 6.31319,6.82508 9.55511,16.89207 3.24191,9.89637 2.5594,23.3759 -0.51188,10.92013 -4.94818,19.6221 -4.26568,8.53135 -11.26138,15.01518 -6.82508,6.48383 -15.52706,10.92013 -8.53135,4.26567 -17.74521,6.48382 -9.04323,2.04753 -17.7452,2.04753 z m 5.11881,-25.42343 q 4.4363,0 9.04323,-1.19438 4.60693,-1.19439 8.8726,-3.7538 4.26568,-2.5594 7.67822,-6.3132 3.41254,-3.92442 5.63069,-9.04323 2.21815,-5.28944 2.38877,-11.77326 0.51188,-8.70198 -1.87689,-14.67392 -2.38878,-5.97195 -6.65446,-9.55512 -4.26567,-3.75379 -9.72573,-5.28943 -5.46007,-1.70627 -11.09076,-1.70627 -5.46006,0 -10.40825,2.73003 -4.94818,2.5594 -8.8726,7.33696 -3.75379,4.60693 -6.14257,10.92013 -2.21815,6.14257 -2.55941,12.96765 -0.51188,9.21386 2.38878,15.86831 2.90066,6.48383 8.36072,10.06699 5.46007,3.41254 12.96766,3.41254 z"
         id="path1791"
         inkscape:label="o" /><path
         id="path1793"
         inkscape:label="h"
         d="m 463.20117,228.6875 c -2.84378,0 -5.06178,0.5114 -6.65429,1.53516 -1.59252,0.91001 -2.7296,1.99092 -3.41211,3.24218 -0.68251,1.13752 -1.13774,2.21843 -1.36524,3.24219 l -0.16992,1.36524 c -0.45501,5.46006 -0.85406,11.26173 -1.19531,17.40429 -0.34126,6.14257 -0.62602,12.45564 -0.85352,18.93946 -0.11375,6.37007 -0.11375,12.68314 0,18.93945 0.11375,6.25632 0.28421,12.28463 0.51172,18.08594 0.34125,5.80131 0.74031,11.14776 1.19531,16.03906 l 0.3418,1.70703 c 0.34125,1.13751 0.96694,2.50318 1.87695,4.0957 0.91001,1.47877 2.21756,2.84249 3.92383,4.09375 1.82002,1.13752 4.20849,1.70703 7.16602,1.70703 3.07128,0.11375 5.40357,-0.34147 6.99609,-1.36523 1.70627,-1.02376 2.89953,-2.16084 3.58203,-3.41211 0.79626,-1.25126 1.25149,-2.3903 1.36524,-3.41406 l 0.17187,-1.53516 c -0.2275,-5.23255 -0.45609,-10.80563 -0.68359,-16.7207 -0.11165,-2.95868 -0.20872,-5.9319 -0.29297,-8.91797 l 40.74414,-2.51367 c 0.0931,3.48035 0.19947,6.90593 0.33008,10.23633 0.34126,5.80131 0.73836,11.14776 1.19336,16.03906 l 0.34179,1.70703 c 0.34126,1.13751 0.96695,2.50318 1.87696,4.0957 1.02376,1.47877 2.38748,2.84249 4.09375,4.09375 1.82001,1.13752 4.15231,1.70703 6.99609,1.70703 3.07128,0.11375 5.40358,-0.34147 6.99609,-1.36523 1.70627,-1.02376 2.90148,-2.16084 3.58399,-3.41211 0.79626,-1.25126 1.25148,-2.3903 1.36523,-3.41406 l 0.16992,-1.53516 c -0.2275,-5.23255 -0.45609,-10.80563 -0.68359,-16.7207 -0.22751,-6.02882 -0.39797,-12.11525 -0.51172,-18.25781 v -18.08594 c 0.11375,-6.02882 0.28421,-11.77432 0.51172,-17.23438 0.2275,-5.46005 0.57039,-10.52174 1.02539,-15.18554 v -1.53516 c 0,-1.02376 -0.17046,-2.27514 -0.51172,-3.75391 -0.34125,-1.47877 -1.02507,-2.95678 -2.04883,-4.43554 -0.91001,-1.47877 -2.27373,-2.73015 -4.09375,-3.75391 -1.70627,-1.02376 -4.09668,-1.59328 -7.16796,-1.70703 -2.84378,0 -5.06178,0.5114 -6.6543,1.53516 -1.47877,0.91001 -2.61585,1.99092 -3.41211,3.24218 -0.68251,1.13752 -1.13773,2.21843 -1.36523,3.24219 l -0.16993,1.36524 c -0.455,5.46006 -0.85406,11.26173 -1.19531,17.40429 -0.34125,6.14257 -0.62601,12.45564 -0.85352,18.93946 -0.0169,0.94701 -0.0135,1.88362 -0.0254,2.82812 l -40.7539,2.95898 v -3.91015 c 0.11375,-6.02882 0.28422,-11.77432 0.51172,-17.23438 0.2275,-5.46005 0.56843,-10.52174 1.02343,-15.18554 v -1.53516 c 0,-1.02376 -0.17046,-2.27514 -0.51171,-3.75391 -0.34126,-1.47877 -1.02312,-2.95678 -2.04688,-4.43554 -0.91001,-1.47877 -2.27568,-2.73015 -4.0957,-3.75391 -1.82002,-1.02376 -4.20849,-1.59328 -7.16602,-1.70703 z" /><path
         id="path1795"
         inkscape:label="a"
         d="m 598.125,229.76562 c -0.51188,-0.007 -1.00874,0.0319 -1.49219,0.11719 -2.61627,0 -5.17715,0.45523 -7.67969,1.36524 -2.38877,0.79626 -4.89153,2.50091 -7.50781,5.11718 -2.61627,2.50254 -5.34567,6.3148 -8.18945,11.4336 -2.73003,5.11881 -5.68802,11.99944 -8.87305,20.64453 -3.07128,9.89636 -5.7445,19.67881 -8.01953,29.34766 -2.16128,9.5551 -3.41265,18.99661 -3.7539,28.32421 l 0.17187,1.87696 c 0.11375,1.13751 0.56898,2.55935 1.36523,4.26562 0.79626,1.70627 2.10381,3.29858 3.92383,4.77735 1.82002,1.36501 4.43708,2.27546 7.84961,2.73046 3.07129,0.34126 5.51592,0.11462 7.33594,-0.68164 1.82002,-0.79625 3.18569,-1.821 4.0957,-3.07226 0.91001,-1.25127 1.47757,-2.33218 1.70508,-3.24219 l 0.51172,-1.53515 c 0.36814,-3.49731 0.67312,-6.29445 0.9668,-8.97266 0.19336,-0.0211 0.37518,-0.0503 0.57031,-0.0703 4.4363,-0.455 9.04276,-0.62547 13.82031,-0.51172 4.8913,0 9.66823,0.22663 14.33203,0.68164 1.07441,0.0786 2.12588,0.1689 3.16407,0.26562 0.4195,2.16763 0.81646,4.24306 1.27343,6.56055 l 0.51172,1.70508 c 0.45501,1.02376 1.19304,2.33326 2.2168,3.92578 1.13751,1.47876 2.67365,2.78632 4.60742,3.92383 1.93377,1.02376 4.38036,1.53515 7.33789,1.53515 2.95753,0 5.17553,-0.51139 6.6543,-1.53515 1.59252,-1.02376 2.7296,-2.16085 3.41211,-3.41211 0.68251,-1.36501 1.02343,-2.56023 1.02343,-3.58399 l 0.17188,-1.53515 c -0.68251,-7.39383 -1.70725,-14.67352 -3.07227,-21.83985 -1.25126,-7.16632 -2.72928,-13.99274 -4.43554,-20.47656 -1.59252,-6.48382 -3.18483,-12.28353 -4.77735,-17.40234 -1.59252,-5.1188 -2.95819,-9.272 -4.0957,-12.45703 -1.25127,-4.6638 -3.01404,-8.81504 -5.28906,-12.45508 -2.16127,-3.64004 -4.55169,-6.65419 -7.16797,-9.04297 -2.61628,-2.50252 -5.17521,-4.32343 -7.67774,-5.46094 -1.79158,-0.85313 -3.45459,-1.28922 -4.99023,-1.31055 z m -0.98047,32.02344 c 1.59252,4.09505 3.07054,8.53105 4.43555,13.3086 1.47876,4.6638 3.0149,10.18071 4.60742,16.55078 0.86795,2.99836 1.67706,6.52426 2.43555,10.50781 -2.03882,-0.0213 -4.05439,-0.01 -6.01953,0.0723 -5.34631,0.11374 -10.57846,0.51085 -15.69727,1.19336 -1.12601,0.15354 -2.26297,0.32743 -3.40625,0.50976 0.11443,-0.57354 0.21233,-1.11513 0.33398,-1.70312 0.79626,-3.29879 1.70671,-7.33769 2.73047,-12.11524 0.79626,-3.07128 1.76288,-6.31207 2.90039,-9.72461 1.25126,-3.41253 2.56077,-6.71145 3.92578,-9.89648 1.36502,-3.29879 2.6164,-6.2006 3.75391,-8.70313 z" /><path
         d="m 662.32348,339.08355 q -4.09504,-0.34126 -6.65445,-1.8769 -2.5594,-1.53564 -4.09505,-3.58317 -1.53564,-2.21815 -2.04752,-3.58316 -0.34125,-1.53565 -0.34125,-1.53565 -1.02377,-9.21385 -1.36502,-19.28085 -0.34125,-10.23762 -0.34125,-20.47524 0.17062,-10.40824 0.51188,-20.47524 0.34125,-10.06699 0.85313,-19.45147 0,0 0.34126,-1.8769 0.34125,-1.8769 2.21815,-4.09505 1.87689,-2.38878 5.97194,-3.41254 2.38878,-0.85313 4.94818,-0.34125 2.73004,0.51188 4.77756,1.36501 2.04752,0.68251 2.21815,1.02376 6.14257,5.97195 13.47953,14.16205 7.33697,8.01946 15.35643,17.7452 8.1901,9.55511 16.55082,20.13399 -0.17062,-5.97195 -0.34125,-12.28515 -0.17063,-6.48382 0,-13.3089 0.17063,-6.82508 0.51188,-14.5033 0.34125,-7.67821 1.02376,-16.38019 0,0 0.34126,-1.19439 0.34125,-1.36501 1.36501,-2.90066 1.19439,-1.70627 3.58317,-2.90065 2.38878,-1.19439 6.48382,-1.02377 4.60693,0 7.16634,1.53565 2.73003,1.53564 4.09505,3.92442 1.53564,2.21815 2.04752,4.4363 0.51188,2.04752 0.51188,3.58317 0,1.53564 0,1.53564 -0.68251,6.82508 -1.02376,15.01517 -0.34125,8.01947 -0.51188,16.89208 0,8.70197 0,17.74521 0.17063,9.04323 0.34125,18.08646 0.34126,8.8726 0.85314,17.23332 0,0 -0.17063,1.36502 0,1.36502 -1.02376,3.24191 -0.85314,1.70627 -2.90066,3.41254 -1.8769,1.53565 -5.46006,2.04753 -3.92443,0.51188 -7.16634,-1.02376 -3.07128,-1.70627 -4.77755,-3.58317 -1.53565,-1.8769 -1.53565,-1.8769 0,0 -1.87689,-2.04752 -1.8769,-2.04753 -4.94819,-5.63069 -3.07128,-3.7538 -7.16633,-8.36073 -3.92442,-4.77755 -8.1901,-9.72574 -4.26567,-5.11881 -8.53135,-10.06699 -4.26567,-4.94818 -7.84884,-9.38448 -3.58317,-4.43631 -5.97194,-7.50759 -0.17063,6.82508 -0.17063,14.33267 0,7.33696 0.17063,16.03893 0.34125,8.53135 0.6825,19.11023 0,0 -0.34125,1.53564 -0.17063,1.53564 -1.36502,3.58317 -1.19438,1.8769 -3.58316,3.41254 -2.38878,1.36501 -6.65446,1.19439 z"
         id="path1797"
         inkscape:label="n" /><path
         d="m 772.8897,339.93668 q -8.70198,-0.34125 -13.47953,-3.92442 -4.60693,-3.58317 -6.14257,-8.36072 -1.02377,-22.35214 -1.19439,-44.02177 -0.17063,-21.84025 1.19439,-42.65675 0.17062,-7.50758 8.36072,-9.89636 8.36072,-2.55941 22.69339,-2.55941 12.96765,0 22.01088,2.21815 9.04323,2.21815 15.35643,6.14258 6.3132,3.75379 10.7495,8.70197 4.60693,4.77756 8.36073,9.72574 9.55511,19.11022 7.67821,35.66104 -1.8769,16.55082 -13.82079,31.22474 -6.9957,7.84885 -16.89207,11.94389 -9.72574,3.92443 -21.32837,5.11881 -11.43201,1.02377 -23.54653,0.68251 z m 6.14257,-25.25279 q 11.43201,0.85313 19.28085,-1.02377 7.84885,-1.87689 12.6264,-5.97194 4.94819,-4.09505 7.33696,-10.23762 2.38878,-6.3132 2.73003,-14.33267 -0.6825,-10.23762 -3.92442,-16.72144 -3.07128,-6.65446 -8.53135,-10.23762 -5.46006,-3.58317 -12.96765,-4.43631 -7.33696,-1.02376 -16.38019,0 -0.68251,15.18581 -0.68251,30.88349 0.17063,15.69768 0.51188,32.07788 z"
         id="path1799"
         inkscape:label="d" /><path
         d="m 903.41932,339.25417 q -9.38449,0.34126 -16.55082,-0.51188 -6.99571,-1.02376 -11.94389,-2.5594 -4.77756,-1.70627 -7.16633,-2.73003 -2.38878,-1.19439 -2.38878,-1.19439 0,0 -1.19439,-0.68251 -1.02376,-0.68251 -2.55941,-2.04752 -1.53564,-1.36502 -2.73003,-3.24192 -1.02376,-1.87689 -1.36501,-4.09505 -0.17063,-2.21815 1.19439,-4.94818 1.53564,-2.90066 3.58316,-3.92442 2.21815,-1.19439 4.26568,-1.19439 2.04752,-0.17063 3.41254,0.17063 1.36501,0.17063 1.36501,0.17063 5.97195,2.38877 12.45577,3.41254 6.48383,1.02376 11.94389,0.6825 5.63069,-0.34125 9.38449,-1.87689 3.75379,-1.70627 4.26567,-4.77756 0.34126,-2.38878 -1.36501,-4.26567 -1.53565,-2.04753 -4.94819,-3.7538 -3.24191,-1.8769 -7.67821,-3.58317 -4.4363,-1.87689 -9.55511,-3.92442 -3.07129,-1.19439 -7.16634,-3.75379 -3.92442,-2.55941 -7.67821,-5.97195 -3.75379,-3.58316 -6.48383,-7.84884 -2.73003,-4.4363 -3.92442,-9.38448 -1.02376,-5.11881 0.51188,-10.92013 1.53565,-5.80132 6.48383,-11.77326 5.11881,-6.14257 11.09075,-9.55511 5.97195,-3.58317 12.11452,-5.11881 6.14257,-1.53565 11.60264,-1.70627 5.63069,-0.17063 10.06699,0.34125 4.4363,0.51188 6.99571,1.19439 2.5594,0.68251 2.5594,0.68251 0,0 1.36502,0.51188 1.53564,0.34125 3.58316,1.36501 2.21816,1.02377 4.26568,2.73004 2.04752,1.53564 3.07129,4.09504 1.19438,2.55941 0.85313,5.80132 -0.68251,3.92442 -2.73003,5.63069 -1.8769,1.70627 -4.26568,2.21815 -2.38877,0.34126 -4.09504,0.17063 -1.70627,-0.34125 -1.70627,-0.34125 -6.82508,-2.04753 -13.47954,-1.02377 -6.48382,0.85314 -11.60263,3.58317 -5.11881,2.73003 -7.84885,6.14257 -2.73003,3.24192 -2.04752,6.14257 0.85314,2.55941 4.4363,4.77756 3.7538,2.04752 9.21386,4.4363 5.46006,2.21815 11.26138,4.94819 5.97195,2.5594 10.92013,6.14257 5.11881,3.41254 8.01947,8.01947 4.60693,7.50758 5.11881,13.99141 0.51188,6.48383 -2.21815,11.77326 -2.55941,5.28944 -7.50759,9.04323 -4.77756,3.7538 -10.92013,5.97195 -5.97194,2.21815 -12.28514,2.5594 z"
         id="path1801"
         inkscape:label="s" /></g></g><g
     inkscape:groupmode="layer"
     id="layer4"
     inkscape:label="Text"><text
       xml:space="preserve"
       style="font-style:normal;font-variant:normal;font-weight:normal;font-stretch:normal;font-size:40px;line-height:125%;font-family:'Sour Gummy';-inkscape-font-specification:'Sour Gummy';letter-spacing:0px;word-spacing:0px;fill:#212a47;fill-opacity:1;stroke:none;stroke-width:1px;stroke-linecap:butt;stroke-linejoin:miter;stroke-opacity:1;filter:url(#filter2453)"
       x="408.095"
       y="696.34723"
       id="text2333"
       inkscape:label="credit"><tspan
         sodipodi:role="line"
         id="tspan2331"
         x="408.095"
         y="696.34723">A VR game by Matt Giuca</tspan></text></g><g
     inkscape:groupmode="layer"
     id="layer5"
     inkscape:label="Branding"><g
       clip-path="url(#a)"
       transform="matrix(0.27783046,0,0,-0.27783046,-16.883147,765.8362)"
       id="g2988"
       inkscape:label="godot_logo"><g
         fill="#414042"
         id="g2948"
         style="filter:url(#filter4311)"><path
           d="m 0,0 c -3.611,0 -6.636,-1.659 -9.09,-4.967 -2.441,-3.311 -3.668,-7.958 -3.668,-13.938 0,-5.993 1.166,-10.581 3.503,-13.778 2.333,-3.207 5.398,-4.804 9.2,-4.804 3.8,0 6.887,1.617 9.258,4.862 2.371,3.233 3.559,7.861 3.559,13.886 0,6.02 -1.227,10.654 -3.673,13.89 C 6.646,-1.617 3.616,0 0,0 m -0.055,-59.493 c -10.573,0 -19.195,3.46 -25.859,10.379 -6.655,6.925 -9.984,17.03 -9.984,30.314 0,13.292 3.367,23.356 10.101,30.209 6.736,6.844 15.431,10.269 26.082,10.269 10.649,0 19.251,-3.363 25.794,-10.109 6.555,-6.733 9.827,-16.94 9.827,-30.591 0,-13.661 -3.348,-23.822 -10.05,-30.49 -6.702,-6.654 -15.333,-9.981 -25.911,-9.981"
           transform="matrix(1.1310535,0,0,1.1310535,531.44953,355.31567)"
           id="path2938" /><path
           d="m 0,0 v -33.768 c 0,-1.577 0.116,-2.571 0.342,-2.988 0.224,-0.415 0.903,-0.623 2.029,-0.623 4.144,0 7.283,1.548 9.429,4.634 2.151,3.083 3.215,8.216 3.215,15.405 0,7.192 -1.113,11.878 -3.325,14.055 C 9.467,-1.102 5.946,0 1.129,0 Z m -21.675,-52.392 v 67.735 c 0,1.883 0.468,3.369 1.413,4.471 0.939,1.085 2.161,1.636 3.671,1.636 H 2.263 c 11.965,0 21.053,-3.018 27.257,-9.04 6.215,-6.02 9.322,-15.499 9.322,-28.447 0,-27.7 -11.821,-41.547 -35.456,-41.547 h -19.302 c -3.836,0 -5.759,1.727 -5.759,5.192"
           transform="matrix(1.1310535,0,0,1.1310535,607.8515,354.43097)"
           id="path2940" /><path
           d="m 0,0 c -3.612,0 -6.645,-1.659 -9.095,-4.967 -2.44,-3.311 -3.662,-7.958 -3.662,-13.938 0,-5.993 1.169,-10.581 3.499,-13.778 2.33,-3.207 5.398,-4.804 9.2,-4.804 3.801,0 6.89,1.617 9.258,4.862 2.372,3.233 3.56,7.861 3.56,13.886 0,6.02 -1.225,10.654 -3.671,13.89 C 6.642,-1.617 3.616,0 0,0 m -0.058,-59.493 c -10.577,0 -19.193,3.46 -25.851,10.379 -6.663,6.925 -9.993,17.03 -9.993,30.314 0,13.292 3.367,23.356 10.1,30.209 6.741,6.844 15.431,10.269 26.086,10.269 10.651,0 19.246,-3.363 25.797,-10.109 6.55,-6.733 9.822,-16.94 9.822,-30.591 0,-13.661 -3.349,-23.822 -10.05,-30.49 -6.699,-6.654 -15.338,-9.981 -25.911,-9.981"
           transform="matrix(1.1310535,0,0,1.1310535,700.81066,355.31567)"
           id="path2942" /><path
           d="m 0,0 c 0,-1.496 -3.721,-2.255 -11.176,-2.255 -7.448,0 -11.18,0.759 -11.18,2.255 v 56.681 h -13.545 c -1.281,0 -2.185,1.727 -2.71,5.198 -0.226,1.652 -0.334,3.343 -0.334,5.077 0,1.724 0.108,3.422 0.334,5.077 0.525,3.462 1.429,5.202 2.71,5.202 h 49.112 c 1.279,0 2.179,-1.74 2.712,-5.202 0.221,-1.655 0.335,-3.353 0.335,-5.077 0,-1.734 -0.114,-3.425 -0.335,-5.077 C 15.39,58.408 14.49,56.681 13.211,56.681 H 0 Z"
           transform="matrix(1.1310535,0,0,1.1310535,789.01132,291.33514)"
           id="path2944" /><path
           d="m 0,0 c -6.078,0.094 -13.034,-1.173 -13.034,-1.173 v -11.863 h 6.995 l -0.078,-5.288 c 0,-1.959 -1.942,-2.943 -5.815,-2.943 -3.878,0 -7.303,1.642 -10.274,4.917 -2.978,3.279 -4.459,8.072 -4.459,14.388 0,6.329 1.447,10.995 4.345,14.006 2.892,3.008 6.683,4.517 11.346,4.517 1.959,0 3.987,-0.316 6.096,-0.961 2.11,-0.639 3.519,-1.238 4.238,-1.799 0.713,-0.577 1.391,-0.85 2.032,-0.85 0.638,0 1.671,0.746 3.1,2.255 1.431,1.505 2.713,3.786 3.844,6.827 1.126,3.057 1.69,5.4 1.69,7.062 0,1.649 -0.036,2.786 -0.109,3.386 -1.581,1.73 -4.499,3.102 -8.755,4.122 -4.248,1.017 -9.011,1.522 -14.28,1.522 -11.594,0 -20.66,-3.65 -27.207,-10.95 -6.552,-7.303 -9.822,-16.783 -9.822,-28.452 0,-13.701 3.347,-24.087 10.041,-31.162 6.706,-7.074 15.51,-10.607 26.425,-10.607 5.87,0 11.08,0.505 15.632,1.522 4.557,1.013 7.586,2.053 9.093,3.105 l 0.452,35.33 C 11.496,-1.036 6.078,-0.104 0,0"
           transform="matrix(1.1310535,0,0,1.1310535,468.26549,336.71278)"
           id="path2946" /></g><g
         fill="#6d6e71"
         id="g2970"
         style="filter:url(#filter4323)"><path
           d="m 0,0 c -0.624,-1.28 -1.771,-2.454 -3.449,-3.516 -1.676,-1.069 -3.805,-1.6 -6.391,-1.6 -3.412,0 -6.156,1.075 -8.24,3.249 -2.076,2.157 -3.116,5.266 -3.116,9.323 v 10.116 c 0,3.969 0.98,7.013 2.946,9.138 1.962,2.108 4.59,3.177 7.872,3.177 3.208,0 5.695,-0.844 7.455,-2.513 1.755,-1.675 2.677,-4.015 2.757,-7.003 L -0.21,20.238 h -2.619 c -0.094,2.29 -0.759,4.057 -2.01,5.305 -1.244,1.238 -3.095,1.864 -5.539,1.864 -2.473,0 -4.432,-0.837 -5.866,-2.516 -1.43,-1.675 -2.143,-4.103 -2.143,-7.293 V 7.424 c 0,-3.308 0.771,-5.83 2.311,-7.567 1.54,-1.724 3.616,-2.588 6.236,-2.588 1.913,0 3.451,0.339 4.602,1.033 1.155,0.684 1.956,1.519 2.409,2.51 v 8.861 h -7.06 v 2.463 H 0 Z"
           transform="matrix(1.1310535,0,0,1.1310535,441.34721,235.75121)"
           id="path2950" /><path
           d="m 0,0 c 1.553,0 2.936,0.44 4.144,1.336 1.21,0.9 2.058,2.037 2.561,3.422 v 5.468 H 2.213 c -1.91,0 -3.44,-0.541 -4.585,-1.623 C -3.52,7.528 -4.088,6.185 -4.088,4.588 -4.088,3.239 -3.733,2.131 -3.014,1.277 -2.296,0.42 -1.292,0 0,0 M 7.124,-2.04 C 6.984,-1.164 6.875,-0.453 6.806,0.104 6.739,0.671 6.705,1.235 6.705,1.808 5.938,0.554 4.948,-0.486 3.725,-1.301 2.504,-2.122 1.146,-2.529 -0.35,-2.529 c -2.092,0 -3.701,0.648 -4.84,1.946 -1.132,1.303 -1.704,3.059 -1.704,5.276 0,2.343 0.823,4.223 2.473,5.618 1.649,1.395 3.89,2.092 6.709,2.092 h 4.417 v 3.106 c 0,1.786 -0.456,3.193 -1.351,4.21 -0.914,1.004 -2.17,1.512 -3.791,1.512 -1.508,0 -2.752,-0.479 -3.728,-1.45 -0.973,-0.965 -1.456,-2.144 -1.456,-3.549 l -2.623,0.023 -0.046,0.137 c -0.074,1.906 0.647,3.591 2.168,5.084 1.515,1.489 3.459,2.229 5.825,2.229 2.338,0 4.22,-0.711 5.657,-2.128 1.429,-1.431 2.146,-3.471 2.146,-6.124 V 3.057 c 0,-0.903 0.042,-1.78 0.121,-2.617 0.081,-0.848 0.212,-1.665 0.417,-2.48 z"
           transform="matrix(1.1310535,0,0,1.1310535,456.01527,232.82495)"
           id="path2952" /><path
           d="m 0,0 0.24,-3.923 c 0.664,1.404 1.554,2.486 2.657,3.255 1.107,0.759 2.41,1.138 3.906,1.138 1.527,0 2.814,-0.444 3.852,-1.343 1.039,-0.896 1.805,-2.252 2.292,-4.074 0.623,1.682 1.505,3.011 2.65,3.973 1.145,0.964 2.534,1.444 4.143,1.444 2.217,0 3.937,-0.897 5.156,-2.692 1.224,-1.799 1.834,-4.559 1.834,-8.288 v -14.765 h -2.823 v 14.814 c 0,3.1 -0.429,5.283 -1.263,6.538 -0.839,1.257 -2.042,1.89 -3.598,1.89 -1.637,0 -2.915,-0.691 -3.834,-2.096 -0.914,-1.405 -1.478,-3.161 -1.683,-5.282 v -0.655 -15.209 H 10.72 v 14.798 c 0,3.027 -0.424,5.194 -1.292,6.488 -0.864,1.294 -2.066,1.936 -3.609,1.936 -1.475,0 -2.668,-0.45 -3.562,-1.342 -0.9,-0.897 -1.54,-2.125 -1.928,-3.683 V -25.275 H -2.477 V 0 Z"
           transform="matrix(1.1310535,0,0,1.1310535,476.7303,259.10521)"
           id="path2954" /><path
           d="m 0,0 c -1.758,0 -3.202,-0.802 -4.334,-2.402 -1.133,-1.606 -1.718,-3.585 -1.765,-5.944 h 11.66 v 1.082 c 0,2.086 -0.489,3.823 -1.469,5.201 C 3.106,-0.684 1.745,0 0,0 m 0.397,-23.76 c -2.725,0 -4.954,1.026 -6.685,3.073 -1.726,2.043 -2.591,4.657 -2.591,7.841 v 4.197 c 0,3.19 0.867,5.85 2.602,7.965 1.739,2.105 3.828,3.158 6.277,3.158 2.648,0 4.699,-0.939 6.164,-2.823 1.468,-1.887 2.201,-4.422 2.201,-7.603 v -2.773 H -6.099 v -2.102 c 0,-2.447 0.586,-4.484 1.752,-6.11 1.168,-1.63 2.755,-2.438 4.744,-2.438 1.382,0 2.585,0.244 3.588,0.724 1.003,0.491 1.863,1.179 2.578,2.082 l 1.149,-1.988 C 6.949,-21.525 5.96,-22.307 4.753,-22.887 3.549,-23.464 2.094,-23.76 0.397,-23.76"
           transform="matrix(1.1310535,0,0,1.1310535,522.82277,256.83868)"
           id="path2956" /><path
           d="M 0,0 C -1.763,0 -3.21,-0.802 -4.341,-2.402 -5.467,-4.008 -6.053,-5.987 -6.104,-8.346 H 5.559 v 1.082 c 0,2.086 -0.488,3.823 -1.474,5.201 C 3.104,-0.684 1.744,0 0,0 m 0.394,-23.76 c -2.726,0 -4.951,1.026 -6.679,3.073 -1.733,2.043 -2.6,4.657 -2.6,7.841 v 4.197 c 0,3.19 0.871,5.85 2.602,7.965 1.744,2.105 3.834,3.158 6.283,3.158 2.643,0 4.703,-0.939 6.164,-2.823 1.463,-1.887 2.197,-4.422 2.197,-7.603 v -2.773 H -6.104 v -2.102 c 0,-2.447 0.587,-4.484 1.76,-6.11 1.162,-1.63 2.742,-2.438 4.738,-2.438 1.387,0 2.585,0.244 3.585,0.724 1.007,0.491 1.866,1.179 2.589,2.082 l 1.141,-1.988 c -0.764,-0.968 -1.75,-1.75 -2.959,-2.33 -1.204,-0.577 -2.658,-0.873 -4.356,-0.873"
           transform="matrix(1.1310535,0,0,1.1310535,558.0805,256.83868)"
           id="path2958" /><path
           d="m 0,0 0.23,-4.178 c 0.674,1.483 1.564,2.634 2.682,3.435 1.108,0.805 2.413,1.213 3.914,1.213 2.258,0 3.988,-0.835 5.189,-2.513 1.214,-1.675 1.815,-4.279 1.815,-7.812 v -15.42 h -2.825 v 15.394 c 0,2.888 -0.423,4.905 -1.264,6.075 -0.836,1.17 -2.065,1.753 -3.665,1.753 -1.435,0 -2.638,-0.466 -3.603,-1.414 C 1.504,-4.406 0.782,-5.657 0.301,-7.234 V -25.275 H -2.504 V 0 Z"
           transform="matrix(1.1310535,0,0,1.1310535,575.91679,259.10521)"
           id="path2960" /><path
           d="m 0,0 c 0,-2.565 0.486,-4.605 1.472,-6.123 0.974,-1.532 2.457,-2.288 4.436,-2.288 1.356,0 2.498,0.361 3.435,1.101 0.934,0.74 1.672,1.77 2.218,3.077 v 12.52 c -0.525,1.346 -1.246,2.434 -2.157,3.272 -0.91,0.824 -2.062,1.238 -3.448,1.238 -1.975,0 -3.468,-0.86 -4.46,-2.587 C 0.497,8.48 0,6.224 0,3.454 Z m -2.833,3.454 c 0,3.582 0.723,6.459 2.177,8.627 1.442,2.157 3.448,3.239 6.004,3.239 1.419,0 2.664,-0.346 3.728,-1.04 1.066,-0.681 1.947,-1.678 2.654,-2.946 l 0.274,3.516 h 2.381 v -25.298 c 0,-3.239 -0.751,-5.749 -2.26,-7.525 -1.511,-1.769 -3.657,-2.665 -6.428,-2.665 -0.996,0 -2.067,0.156 -3.212,0.459 -1.147,0.303 -2.162,0.701 -3.052,1.2 l 0.776,2.463 c 0.759,-0.492 1.608,-0.873 2.548,-1.141 0.932,-0.277 1.895,-0.41 2.894,-0.41 2.009,0 3.498,0.645 4.46,1.932 0.966,1.304 1.45,3.19 1.45,5.687 v 3.057 c -0.717,-1.138 -1.597,-2.011 -2.64,-2.614 -1.039,-0.606 -2.253,-0.909 -3.622,-0.909 -2.539,0 -4.53,0.994 -5.968,2.982 C -2.11,-5.948 -2.833,-3.301 -2.833,0 Z"
           transform="matrix(1.1310535,0,0,1.1310535,600.8685,242.30884)"
           id="path2962" /><path
           d="m 627.82321,230.5176 h -3.20089 v 28.58738 h 3.20089 z m 0,36.72644 h -3.20089 v 4.50385 h 3.20089 z"
           id="path2964" /><path
           d="m 0,0 0.23,-4.178 c 0.676,1.483 1.562,2.634 2.678,3.435 1.115,0.805 2.422,1.213 3.916,1.213 2.258,0 3.995,-0.835 5.199,-2.513 1.211,-1.675 1.807,-4.279 1.807,-7.812 v -15.42 h -2.825 v 15.394 c 0,2.888 -0.422,4.905 -1.261,6.075 -0.843,1.17 -2.063,1.753 -3.668,1.753 -1.434,0 -2.635,-0.466 -3.599,-1.414 C 1.51,-4.406 0.785,-5.657 0.306,-7.234 V -25.275 H -2.503 V 0 Z"
           transform="matrix(1.1310535,0,0,1.1310535,638.15379,259.10521)"
           id="path2966" /><path
           d="M 0,0 C -1.763,0 -3.208,-0.802 -4.334,-2.402 -5.463,-4.008 -6.052,-5.987 -6.102,-8.346 H 5.56 v 1.082 c 0,2.086 -0.486,3.823 -1.47,5.201 C 3.109,-0.684 1.747,0 0,0 m 0.401,-23.76 c -2.733,0 -4.958,1.026 -6.681,3.073 -1.73,2.043 -2.595,4.657 -2.595,7.841 v 4.197 c 0,3.19 0.865,5.85 2.6,7.965 1.739,2.105 3.831,3.158 6.275,3.158 2.646,0 4.706,-0.939 6.172,-2.823 1.462,-1.887 2.195,-4.422 2.195,-7.603 v -2.773 H -6.102 v -2.102 c 0,-2.447 0.59,-4.484 1.757,-6.11 1.166,-1.63 2.748,-2.438 4.746,-2.438 1.382,0 2.579,0.244 3.578,0.724 1.012,0.491 1.869,1.179 2.591,2.082 l 1.147,-1.988 c -0.769,-0.968 -1.755,-1.75 -2.962,-2.33 -1.203,-0.577 -2.658,-0.873 -4.354,-0.873"
           transform="matrix(1.1310535,0,0,1.1310535,669.70883,256.83868)"
           id="path2968" /></g><path
         d="m 0,0 c 0,0 -0.325,1.994 -0.515,1.976 l -36.182,-3.491 c -2.879,-0.278 -5.115,-2.574 -5.317,-5.459 l -0.994,-14.247 -27.992,-1.997 -1.904,12.912 c -0.424,2.872 -2.932,5.037 -5.835,5.037 h -38.188 c -2.902,0 -5.41,-2.165 -5.834,-5.037 l -1.905,-12.912 -27.992,1.997 -0.994,14.247 c -0.202,2.886 -2.438,5.182 -5.317,5.46 l -36.2,3.49 c -0.187,0.018 -0.324,-1.978 -0.511,-1.978 l -0.049,-7.83 30.658,-4.944 1.004,-14.374 c 0.203,-2.91 2.551,-5.263 5.463,-5.472 l 38.551,-2.75 c 0.146,-0.01 0.29,-0.016 0.434,-0.016 2.897,0 5.401,2.166 5.825,5.038 l 1.959,13.286 h 28.005 l 1.959,-13.286 c 0.423,-2.871 2.93,-5.037 5.831,-5.037 0.142,0 0.284,0.005 0.423,0.015 l 38.556,2.75 c 2.911,0.209 5.26,2.562 5.463,5.472 l 1.003,14.374 30.645,4.966 z"
         fill="#ffffff"
         transform="matrix(1.1310535,0,0,1.1310535,348.13109,279.2668)"
         id="path2972" /><path
         d="m 0,0 v -47.514 -6.035 -5.492 c 0.108,-0.001 0.216,-0.005 0.323,-0.015 l 36.196,-3.49 c 1.896,-0.183 3.382,-1.709 3.514,-3.609 l 1.116,-15.978 31.574,-2.253 2.175,14.747 c 0.282,1.912 1.922,3.329 3.856,3.329 h 38.188 c 1.933,0 3.573,-1.417 3.855,-3.329 l 2.175,-14.747 31.575,2.253 1.115,15.978 c 0.133,1.9 1.618,3.425 3.514,3.609 l 36.182,3.49 c 0.107,0.01 0.214,0.014 0.322,0.015 v 4.711 l 0.015,0.005 V 0 c 5.09692,6.4164715 9.92323,13.494208 13.621,19.449 -5.651,9.62 -12.575,18.217 -19.976,26.182 -6.864,-3.455 -13.531,-7.369 -19.828,-11.534 -3.151,3.132 -6.7,5.694 -10.186,8.372 -3.425,2.751 -7.285,4.768 -10.946,7.118 1.09,8.117 1.629,16.108 1.846,24.448 -9.446,4.754 -19.519,7.906 -29.708,10.17 -4.068,-6.837 -7.788,-14.241 -11.028,-21.479 -3.842,0.642 -7.702,0.88 -11.567,0.926 v 0.006 c -0.027,0 -0.052,-0.006 -0.075,-0.006 -0.024,0 -0.049,0.006 -0.073,0.006 V 63.652 C 93.903,63.606 90.046,63.368 86.203,62.726 82.965,69.964 79.247,77.368 75.173,84.205 64.989,81.941 54.915,78.789 45.47,74.035 45.686,65.695 46.225,57.704 47.318,49.587 43.65,47.237 39.795,45.22 36.369,42.469 32.888,39.791 29.333,37.229 26.181,34.097 19.884,38.262 13.219,42.176 6.353,45.631 -1.048,37.666 -7.968,29.069 -13.621,19.449 -9.1783421,12.475308 -4.4130298,5.4661124 0,0 Z"
         fill="#478cbf"
         transform="matrix(1.1310535,0,0,1.1310535,126.80608,346.04533)"
         id="path2974" /><path
         d="m 0,0 -1.121,-16.063 c -0.135,-1.936 -1.675,-3.477 -3.611,-3.616 l -38.555,-2.751 c -0.094,-0.007 -0.188,-0.01 -0.281,-0.01 -1.916,0 -3.569,1.406 -3.852,3.33 l -2.211,14.994 H -81.09 l -2.211,-14.994 c -0.297,-2.018 -2.101,-3.469 -4.133,-3.32 l -38.555,2.751 c -1.936,0.139 -3.476,1.68 -3.611,3.616 L -130.721,0 -163.268,3.138 c 0.015,-3.498 0.06,-7.33 0.06,-8.093 0,-34.374 43.605,-50.896 97.781,-51.086 h 0.066 0.067 c 54.176,0.19 97.766,16.712 97.766,51.086 0,0.777 0.047,4.593 0.063,8.093 z"
         fill="#478cbf"
         transform="matrix(1.1310535,0,0,1.1310535,311.40329,266.88437)"
         id="path2976" /><path
         d="m 0,0 c 0,-12.052 -9.765,-21.815 -21.813,-21.815 -12.042,0 -21.81,9.763 -21.81,21.815 0,12.044 9.768,21.802 21.81,21.802 C -9.765,21.802 0,12.044 0,0"
         fill="#ffffff"
         transform="matrix(1.1310535,0,0,1.1310535,204.11393,318.93771)"
         id="path2978" /><path
         d="m 0,0 c 0,-7.994 -6.479,-14.473 -14.479,-14.473 -7.996,0 -14.479,6.479 -14.479,14.473 0,7.994 6.483,14.479 14.479,14.479 C -6.479,14.479 0,7.994 0,0"
         fill="#414042"
         transform="matrix(1.1310535,0,0,1.1310535,198.17748,317.47435)"
         id="path2980" /><path
         d="m 0,0 c -3.878,0 -7.021,2.858 -7.021,6.381 v 20.081 c 0,3.52 3.143,6.381 7.021,6.381 3.878,0 7.028,-2.861 7.028,-6.381 V 6.381 C 7.028,2.858 3.878,0 0,0"
         fill="#ffffff"
         transform="matrix(1.1310535,0,0,1.1310535,237.47503,292.01909)"
         id="path2982" /><path
         d="m 0,0 c 0,-12.052 9.765,-21.815 21.815,-21.815 12.041,0 21.808,9.763 21.808,21.815 0,12.044 -9.767,21.802 -21.808,21.802 C 9.765,21.802 0,12.044 0,0"
         fill="#ffffff"
         transform="matrix(1.1310535,0,0,1.1310535,270.84021,318.93771)"
         id="path2984" /><path
         d="m 0,0 c 0,-7.994 6.477,-14.473 14.471,-14.473 8.002,0 14.479,6.479 14.479,14.473 0,7.994 -6.477,14.479 -14.479,14.479 C 6.477,14.479 0,7.994 0,0"
         fill="#414042"
         transform="matrix(1.1310535,0,0,1.1310535,276.77813,317.47435)"
         id="path2986" /></g><g
       clip-path="url(#a)"
       transform="matrix(0.27783046,0,0,-0.27783046,1038.3851,762.65015)"
       id="g3098"
       inkscape:label="godot xr jam"
       style="filter:url(#filter4335)"><g
         fill="#414042"
         id="g3058"
         transform="translate(13.242363,-1.7584451)"><path
           d="m 0,0 c -3.611,0 -6.636,-1.659 -9.09,-4.967 -2.441,-3.311 -3.668,-7.958 -3.668,-13.938 0,-5.993 1.166,-10.581 3.503,-13.778 2.333,-3.207 5.398,-4.804 9.2,-4.804 3.8,0 6.887,1.617 9.258,4.862 2.371,3.233 3.559,7.861 3.559,13.886 0,6.02 -1.227,10.654 -3.673,13.89 C 6.646,-1.617 3.616,0 0,0 m -0.055,-59.493 c -10.573,0 -19.195,3.46 -25.859,10.379 -6.655,6.925 -9.984,17.03 -9.984,30.314 0,13.292 3.367,23.356 10.101,30.209 6.736,6.844 15.431,10.269 26.082,10.269 10.649,0 19.251,-3.363 25.794,-10.109 6.555,-6.733 9.827,-16.94 9.827,-30.591 0,-13.661 -3.348,-23.822 -10.05,-30.49 -6.702,-6.654 -15.333,-9.981 -25.911,-9.981"
           transform="matrix(1.1310535,0,0,1.1310535,531.44953,355.31567)"
           id="path3048" /><path
           d="m 0,0 v -33.768 c 0,-1.577 0.116,-2.571 0.342,-2.988 0.224,-0.415 0.903,-0.623 2.029,-0.623 4.144,0 7.283,1.548 9.429,4.634 2.151,3.083 3.215,8.216 3.215,15.405 0,7.192 -1.113,11.878 -3.325,14.055 C 9.467,-1.102 5.946,0 1.129,0 Z m -21.675,-52.392 v 67.735 c 0,1.883 0.468,3.369 1.413,4.471 0.939,1.085 2.161,1.636 3.671,1.636 H 2.263 c 11.965,0 21.053,-3.018 27.257,-9.04 6.215,-6.02 9.322,-15.499 9.322,-28.447 0,-27.7 -11.821,-41.547 -35.456,-41.547 h -19.302 c -3.836,0 -5.759,1.727 -5.759,5.192"
           transform="matrix(1.1310535,0,0,1.1310535,607.8515,354.43097)"
           id="path3050" /><path
           d="m 0,0 c -3.612,0 -6.645,-1.659 -9.095,-4.967 -2.44,-3.311 -3.662,-7.958 -3.662,-13.938 0,-5.993 1.169,-10.581 3.499,-13.778 2.33,-3.207 5.398,-4.804 9.2,-4.804 3.801,0 6.89,1.617 9.258,4.862 2.372,3.233 3.56,7.861 3.56,13.886 0,6.02 -1.225,10.654 -3.671,13.89 C 6.642,-1.617 3.616,0 0,0 m -0.058,-59.493 c -10.577,0 -19.193,3.46 -25.851,10.379 -6.663,6.925 -9.993,17.03 -9.993,30.314 0,13.292 3.367,23.356 10.1,30.209 6.741,6.844 15.431,10.269 26.086,10.269 10.651,0 19.246,-3.363 25.797,-10.109 6.55,-6.733 9.822,-16.94 9.822,-30.591 0,-13.661 -3.349,-23.822 -10.05,-30.49 -6.699,-6.654 -15.338,-9.981 -25.911,-9.981"
           transform="matrix(1.1310535,0,0,1.1310535,700.81066,355.31567)"
           id="path3052" /><path
           d="m 0,0 c 0,-1.496 -3.721,-2.255 -11.176,-2.255 -7.448,0 -11.18,0.759 -11.18,2.255 v 56.681 h -13.545 c -1.281,0 -2.185,1.727 -2.71,5.198 -0.226,1.652 -0.334,3.343 -0.334,5.077 0,1.724 0.108,3.422 0.334,5.077 0.525,3.462 1.429,5.202 2.71,5.202 h 49.112 c 1.279,0 2.179,-1.74 2.712,-5.202 0.221,-1.655 0.335,-3.353 0.335,-5.077 0,-1.734 -0.114,-3.425 -0.335,-5.077 C 15.39,58.408 14.49,56.681 13.211,56.681 H 0 Z"
           transform="matrix(1.1310535,0,0,1.1310535,789.01132,291.33514)"
           id="path3054" /><path
           d="m 0,0 c -6.078,0.094 -13.034,-1.173 -13.034,-1.173 v -11.863 h 6.995 l -0.078,-5.288 c 0,-1.959 -1.942,-2.943 -5.815,-2.943 -3.878,0 -7.303,1.642 -10.274,4.917 -2.978,3.279 -4.459,8.072 -4.459,14.388 0,6.329 1.447,10.995 4.345,14.006 2.892,3.008 6.683,4.517 11.346,4.517 1.959,0 3.987,-0.316 6.096,-0.961 2.11,-0.639 3.519,-1.238 4.238,-1.799 0.713,-0.577 1.391,-0.85 2.032,-0.85 0.638,0 1.671,0.746 3.1,2.255 1.431,1.505 2.713,3.786 3.844,6.827 1.126,3.057 1.69,5.4 1.69,7.062 0,1.649 -0.036,2.786 -0.109,3.386 -1.581,1.73 -4.499,3.102 -8.755,4.122 -4.248,1.017 -9.011,1.522 -14.28,1.522 -11.594,0 -20.66,-3.65 -27.207,-10.95 -6.552,-7.303 -9.822,-16.783 -9.822,-28.452 0,-13.701 3.347,-24.087 10.041,-31.162 6.706,-7.074 15.51,-10.607 26.425,-10.607 5.87,0 11.08,0.505 15.632,1.522 4.557,1.013 7.586,2.053 9.093,3.105 l 0.452,35.33 C 11.496,-1.036 6.078,-0.104 0,0"
           transform="matrix(1.1310535,0,0,1.1310535,468.26549,336.71278)"
           id="path3056"
           style="stroke-width:0.999233;stroke-dasharray:none" /></g><text
         xml:space="preserve"
         style="font-style:normal;font-variant:normal;font-weight:normal;font-stretch:normal;font-size:106.256px;line-height:125%;font-family:Baloo;-inkscape-font-specification:Baloo;letter-spacing:0px;word-spacing:0px;fill:#414042;fill-opacity:1;stroke:none;stroke-width:2.65639px;stroke-linecap:butt;stroke-linejoin:miter;stroke-opacity:1"
         x="186.50636"
         y="-193.73149"
         id="text3102"
         transform="scale(1,-1)"
         inkscape:label="xr game jam"><tspan
           sodipodi:role="line"
           id="tspan3100"
           style="font-style:normal;font-variant:normal;font-weight:normal;font-stretch:normal;font-family:Baloo;-inkscape-font-specification:Baloo;fill:#414042;fill-opacity:1;stroke-width:2.65639px"
           x="186.50636"
           y="-193.73149">XR Game Jam</tspan></text></g></g></svg>
