<?xml version="1.0" encoding="UTF-8" standalone="no"?>
<!-- Created with Inkscape (http://www.inkscape.org/) -->

<svg
   width="1024"
   height="1024"
   viewBox="0 0 1024 1024"
   version="1.1"
   id="svg1"
   xml:space="preserve"
   inkscape:version="1.4.2 (f4327f4, 2025-05-13)"
   sodipodi:docname="calibrate_instruction.svg"
   inkscape:export-filename="..\..\images\textures\calibrate_instruction.png"
   inkscape:export-xdpi="96"
   inkscape:export-ydpi="96"
   xmlns:inkscape="http://www.inkscape.org/namespaces/inkscape"
   xmlns:sodipodi="http://sodipodi.sourceforge.net/DTD/sodipodi-0.dtd"
   xmlns:xlink="http://www.w3.org/1999/xlink"
   xmlns="http://www.w3.org/2000/svg"
   xmlns:svg="http://www.w3.org/2000/svg"><sodipodi:namedview
     id="namedview1"
     pagecolor="#959595"
     bordercolor="#000000"
     borderopacity="0.25"
     inkscape:showpageshadow="2"
     inkscape:pageopacity="0.0"
     inkscape:pagecheckerboard="0"
     inkscape:deskcolor="#d1d1d1"
     inkscape:document-units="px"
     inkscape:zoom="0.56682707"
     inkscape:cx="524.85143"
     inkscape:cy="433.11269"
     inkscape:window-width="1920"
     inkscape:window-height="1009"
     inkscape:window-x="1912"
     inkscape:window-y="-8"
     inkscape:window-maximized="1"
     inkscape:current-layer="layer3" /><defs
     id="defs1"><inkscape:path-effect
       effect="mirror_symmetry"
       start_point="217.97525,270.65533"
       end_point="217.97525,593.28103"
       center_point="217.97525,431.96818"
       id="path-effect15"
       is_visible="true"
       lpeversion="1.2"
       lpesatellites=""
       mode="free"
       discard_orig_path="false"
       fuse_paths="true"
       oposite_fuse="false"
       split_items="false"
       split_open="false"
       link_styles="false" /><inkscape:path-effect
       effect="mirror_symmetry"
       start_point="416.97997,170.21029"
       end_point="446.33779,457.98197"
       center_point="431.65888,314.09613"
       id="path-effect14"
       is_visible="true"
       lpeversion="1.2"
       lpesatellites=""
       mode="free"
       discard_orig_path="false"
       fuse_paths="false"
       oposite_fuse="false"
       split_items="false"
       split_open="false"
       link_styles="false" /><linearGradient
       id="linearGradient8"
       inkscape:collect="always"><stop
         style="stop-color:#454545;stop-opacity:1;"
         offset="0"
         id="stop8" /><stop
         style="stop-color:#262626;stop-opacity:1;"
         offset="1"
         id="stop9" /></linearGradient><marker
       style="overflow:visible"
       id="ArrowTriangleStylized"
       refX="0"
       refY="0"
       orient="auto-start-reverse"
       inkscape:stockid="Stylized triangle arrow"
       markerWidth="1"
       markerHeight="1"
       viewBox="0 0 1 1"
       inkscape:isstock="true"
       inkscape:collect="always"
       preserveAspectRatio="xMidYMid"><path
         transform="scale(0.5)"
         style="fill:context-stroke;fill-rule:evenodd;stroke:context-stroke;stroke-width:1pt"
         d="m 6,0 c -3,1 -7,3 -9,5 0,0 0,-4 2,-5 -2,-1 -2,-5 -2,-5 2,2 6,4 9,5 z"
         id="path10" /></marker><linearGradient
       inkscape:collect="always"
       xlink:href="#linearGradient8"
       id="linearGradient9"
       x1="455.13806"
       y1="250.95689"
       x2="495.8497"
       y2="293.46216"
       gradientUnits="userSpaceOnUse"
       gradientTransform="matrix(1.4685548,0,0,1.4685548,-162.24712,-34.614749)" /><linearGradient
       inkscape:collect="always"
       xlink:href="#linearGradient8"
       id="linearGradient10"
       gradientUnits="userSpaceOnUse"
       gradientTransform="matrix(1.4685548,0,0,1.4685548,-242.87083,-181.39048)"
       x1="455.13806"
       y1="250.95689"
       x2="495.8497"
       y2="293.46216" /></defs><g
     inkscape:label="Controller"
     inkscape:groupmode="layer"
     id="layer1"><g
       id="g14"
       inkscape:label="Controller"
       transform="matrix(0.75873164,0,0,0.75873164,400.5719,9.4001517)"><path
         style="font-variation-settings:normal;opacity:1;vector-effect:none;fill:#dfdfdf;fill-opacity:1;stroke:#000000;stroke-width:8.73524;stroke-linecap:round;stroke-linejoin:miter;stroke-miterlimit:4;stroke-dasharray:none;stroke-dashoffset:0;stroke-opacity:1;-inkscape-stroke:none;stop-color:#000000;stop-opacity:1"
         d="m 704.58764,412.96664 c 0,0 -48.9297,52.84408 -56.75845,119.38846 -7.82875,66.54439 -2.61661,242.3322 -87.73766,305.32132 -20.13183,14.89745 -56.46485,15.44132 -75.12271,-1.26523 -87.38961,-78.25006 -7.08507,-325.3768 -44.60154,-349.07141 l -74.37315,-46.97251 v 0"
         id="path11"
         sodipodi:nodetypes="csaascc" /><path
         style="font-variation-settings:normal;vector-effect:none;fill:#b6b6b6;fill-opacity:1;stroke:#000000;stroke-width:8.73524;stroke-linecap:round;stroke-linejoin:miter;stroke-miterlimit:4;stroke-dasharray:none;stroke-dashoffset:0;stroke-opacity:1;-inkscape-stroke:none"
         d="m -456.26472,738.792 c 0,0 -42.7462,3.18833 -50.54798,3.87738 -16.1217,1.42397 -22.52068,-51.26971 -9.72086,-55.3998 12.79982,-4.13009 54.073,-2.58852 54.073,-2.58852"
         id="path5-2"
         sodipodi:nodetypes="cssc"
         transform="translate(932.52103,-172.18653)" /><g
         id="g11"
         inkscape:label="Top"><circle
           style="font-variation-settings:normal;opacity:1;vector-effect:none;fill:#212121;fill-opacity:1;stroke:#000000;stroke-width:8.17722;stroke-linecap:round;stroke-linejoin:miter;stroke-miterlimit:4;stroke-dasharray:none;stroke-dashoffset:0;stroke-opacity:1;-inkscape-stroke:none;stop-color:#000000;stop-opacity:1"
           id="path6"
           cx="524.52637"
           cy="279.87784"
           r="225.35562" /><circle
           style="font-variation-settings:normal;opacity:1;vector-effect:none;fill:#070707;fill-opacity:1;stroke:#000000;stroke-width:8.73524;stroke-linecap:round;stroke-linejoin:miter;stroke-miterlimit:4;stroke-dasharray:none;stroke-dashoffset:0;stroke-opacity:1;-inkscape-stroke:none"
           id="path7"
           cx="624.62115"
           cy="243.78018"
           r="52.844074" /><g
           id="g13"
           transform="translate(8.303645,2.7678817)"
           inkscape:label="B"><circle
             style="font-variation-settings:normal;vector-effect:none;fill:url(#linearGradient10);stroke:#000000;stroke-width:8.00086;stroke-linecap:round;stroke-linejoin:miter;stroke-miterlimit:4;stroke-dasharray:none;stroke-dashoffset:0;stroke-opacity:1;-inkscape-stroke:none"
             id="path7-2-2"
             cx="455.06177"
             cy="221.70416"
             r="48.401459" /><text
             xml:space="preserve"
             style="font-style:normal;font-variant:normal;font-weight:normal;font-stretch:normal;font-size:84.8177px;font-family:Calibri;-inkscape-font-specification:Calibri;text-align:start;letter-spacing:19.8792px;writing-mode:lr-tb;direction:ltr;text-anchor:start;opacity:1;fill:#d5d5d5;fill-opacity:1;stroke:none;stroke-width:1.92627;stroke-linecap:round;stroke-linejoin:miter;stroke-miterlimit:4;stroke-dasharray:none;stroke-dashoffset:0;stroke-opacity:1"
             x="431.77493"
             y="248.49959"
             id="text10"><tspan
               sodipodi:role="line"
               id="tspan10"
               x="431.77493"
               y="248.49959"
               style="font-style:normal;font-variant:normal;font-weight:normal;font-stretch:normal;font-family:Calibri;-inkscape-font-specification:Calibri;fill:#d5d5d5;fill-opacity:1;stroke:none;stroke-width:1.92627;stroke-dasharray:none">B</tspan></text></g><g
           id="g12"
           transform="translate(-11.071527,2.7678817)"
           inkscape:label="A"><circle
             style="font-variation-settings:normal;vector-effect:none;fill:url(#linearGradient9);stroke:#000000;stroke-width:8.00086;stroke-linecap:round;stroke-linejoin:miter;stroke-miterlimit:4;stroke-dasharray:none;stroke-dashoffset:0;stroke-opacity:1;-inkscape-stroke:none"
             id="path7-2"
             cx="535.68549"
             cy="368.47992"
             r="48.401459" /><text
             xml:space="preserve"
             style="font-style:normal;font-variant:normal;font-weight:normal;font-stretch:normal;font-size:84.8177px;font-family:Calibri;-inkscape-font-specification:Calibri;text-align:start;letter-spacing:19.8792px;writing-mode:lr-tb;direction:ltr;text-anchor:start;fill:#d5d5d5;fill-opacity:1;stroke:none;stroke-width:1.92627;stroke-linecap:round;stroke-linejoin:miter;stroke-miterlimit:4;stroke-dasharray:none;stroke-dashoffset:0;stroke-opacity:1"
             x="511.14716"
             y="392.33823"
             id="text10-5"><tspan
               sodipodi:role="line"
               id="tspan10-7"
               x="511.14716"
               y="392.33823"
               style="font-style:normal;font-variant:normal;font-weight:normal;font-stretch:normal;font-family:Calibri;-inkscape-font-specification:Calibri;fill:#d5d5d5;fill-opacity:1;stroke:none;stroke-width:1.92627;stroke-dasharray:none">A</tspan></text></g></g></g></g><g
     inkscape:groupmode="layer"
     id="layer4"
     inkscape:label="Person"><path
       id="path14"
       style="font-variation-settings:normal;opacity:1;vector-effect:none;fill:#b7b7b7;fill-opacity:1;stroke:#000000;stroke-width:5.84352;stroke-linecap:round;stroke-linejoin:miter;stroke-miterlimit:4;stroke-dasharray:5.84352, 17.5306;stroke-dashoffset:0;stroke-opacity:1;-inkscape-stroke:none"
       d="m 291.21523,136.51126 a 68.082529,68.082529 0 0 0 -68.08197,68.08197 68.082529,68.082529 0 0 0 43.18376,63.36555 c -15.93254,3.03056 -23.07727,0.22744 -44.97256,5.85166 -36.16891,9.29069 -85.12001,115.57012 -96.09582,126.97461 -4.23089,4.39614 -10.80657,6.79592 -9.65667,16.48421 1.08488,9.14054 22.25089,15.64515 28.59578,16.64179 8.56747,1.34574 10.64853,-15.92001 12.10621,-13.74819 5.95983,8.87961 5.20666,6.42016 12.78305,6.68429 7.58311,0.26436 -3.73226,-13.50706 -2.42088,-17.42606 0.95488,-2.85364 40.3269,-70.45243 51.09281,-74.04107 10.76592,-3.58864 14.35526,17.0466 13.45811,37.68126 -0.89716,20.63467 2.69177,170.46077 -3.58835,173.15224 -6.28011,2.69148 -43.96117,7.1762 -40.37253,13.45632 3.58864,6.28011 41.26897,4.4873 49.3434,3.59014 8.07444,-0.89716 29.60734,5.38131 31.40166,-1.79596 1.79432,-7.17728 15.36577,-127.20101 22.49343,-127.25216 0.26194,-0.002 0.50417,-0.003 0.73057,-0.002 0.2264,-3.4e-4 0.47042,3.3e-4 0.73236,0.002 7.12766,0.0512 20.69911,120.07488 22.49343,127.25216 1.79432,7.17727 23.32542,0.8988 31.39986,1.79596 8.07443,0.89716 45.75656,2.68997 49.34519,-3.59014 3.58865,-6.28012 -34.09241,-10.76484 -40.37252,-13.45632 -6.28012,-2.69147 -2.69119,-152.51757 -3.58835,-173.15224 -0.89716,-20.63466 2.6904,-41.2699 13.45632,-37.68126 10.76592,3.58864 50.13972,71.18743 51.0946,74.04107 1.31138,3.919 -10.00399,17.69042 -2.42089,17.42606 7.5764,-0.26413 6.82145,2.19532 12.78127,-6.68429 1.45768,-2.17182 3.54053,15.09393 12.10799,13.74819 6.34489,-0.99664 27.51092,-7.50125 28.5958,-16.64179 1.14989,-9.68829 -5.4258,-12.08807 -9.65669,-16.48421 -10.9758,-11.40449 -59.9269,-117.68392 -96.09581,-126.97461 -21.89528,-5.62422 -29.04002,-2.8211 -44.97255,-5.85166 a 68.082529,68.082529 0 0 0 43.18375,-63.36555 68.082529,68.082529 0 0 0 -68.08376,-68.08197 z"
       inkscape:label="person-tall" /></g><g
     inkscape:groupmode="layer"
     id="layer3"
     inkscape:label="Text"
     style="display:inline"><text
       xml:space="preserve"
       style="font-style:normal;font-variant:normal;font-weight:normal;font-stretch:normal;font-size:33.816px;font-family:'Allerta Stencil';-inkscape-font-specification:'Allerta Stencil';text-align:start;letter-spacing:1.81157px;writing-mode:lr-tb;direction:ltr;text-anchor:start;white-space:pre;inline-size:374.153;display:inline;opacity:1;fill:#000000;fill-opacity:1;stroke:none;stroke-width:1.74954;stroke-linecap:round;stroke-linejoin:miter;stroke-miterlimit:4;stroke-dasharray:none;stroke-dashoffset:0;stroke-opacity:1"
       x="68.027527"
       y="540.57373"
       id="text7"
       transform="matrix(2.6706535,0,0,2.6706535,-162.06546,-682.04437)"><tspan
         x="68.027527"
         y="540.57373"
         id="tspan1">Stand tall in center.
</tspan><tspan
         x="68.027527"
         y="582.84376"
         id="tspan2">Press and hold B
</tspan><tspan
         x="68.027527"
         y="625.11378"
         id="tspan3">to calibrate.</tspan></text></g><g
     inkscape:groupmode="layer"
     id="layer2"
     inkscape:label="Arrows"
     style="display:inline"><path
       style="fill:none;fill-opacity:1;stroke:#cf210d;stroke-width:15;stroke-linecap:round;stroke-dasharray:none;stroke-opacity:1;marker-end:url(#ArrowTriangleStylized)"
       d="M 551.95085,598.92644 704.91356,287.03811"
       id="path9"
       sodipodi:nodetypes="cc" /></g></svg>
