<?xml version="1.0" encoding="UTF-8" standalone="no"?>
<!-- Created with Inkscape (http://www.inkscape.org/) -->

<svg
   width="1024"
   height="1024"
   viewBox="0 0 1024 1024"
   version="1.1"
   id="svg1"
   xml:space="preserve"
   inkscape:version="1.4.2 (f4327f4, 2025-05-13)"
   sodipodi:docname="throw_instruction.svg"
   inkscape:export-filename="..\..\images\textures\throw_instruction.png"
   inkscape:export-xdpi="96"
   inkscape:export-ydpi="96"
   xmlns:inkscape="http://www.inkscape.org/namespaces/inkscape"
   xmlns:sodipodi="http://sodipodi.sourceforge.net/DTD/sodipodi-0.dtd"
   xmlns="http://www.w3.org/2000/svg"
   xmlns:svg="http://www.w3.org/2000/svg"><sodipodi:namedview
     id="namedview1"
     pagecolor="#959595"
     bordercolor="#000000"
     borderopacity="0.25"
     inkscape:showpageshadow="2"
     inkscape:pageopacity="0.0"
     inkscape:pagecheckerboard="0"
     inkscape:deskcolor="#d1d1d1"
     inkscape:document-units="px"
     inkscape:zoom="0.51093715"
     inkscape:cx="798.53266"
     inkscape:cy="376.75867"
     inkscape:window-width="1920"
     inkscape:window-height="1009"
     inkscape:window-x="1912"
     inkscape:window-y="-8"
     inkscape:window-maximized="1"
     inkscape:current-layer="layer2" /><defs
     id="defs1"><marker
       style="overflow:visible"
       id="ArrowTriangleStylized"
       refX="0"
       refY="0"
       orient="auto-start-reverse"
       inkscape:stockid="Stylized triangle arrow"
       markerWidth="1"
       markerHeight="1"
       viewBox="0 0 1 1"
       inkscape:isstock="true"
       inkscape:collect="always"
       preserveAspectRatio="xMidYMid"><path
         transform="scale(0.5)"
         style="fill:context-stroke;fill-rule:evenodd;stroke:context-stroke;stroke-width:1pt"
         d="m 6,0 c -3,1 -7,3 -9,5 0,0 0,-4 2,-5 -2,-1 -2,-5 -2,-5 2,2 6,4 9,5 z"
         id="path10" /></marker></defs><g
     inkscape:label="Controller"
     inkscape:groupmode="layer"
     id="layer1"><g
       id="g5"
       transform="translate(-34.32979,0.04600896)"
       inkscape:label="Controller"><path
         style="font-variation-settings:normal;opacity:1;vector-effect:none;fill:#b6b6b6;fill-opacity:1;stroke:#000000;stroke-width:8.73524;stroke-linecap:round;stroke-linejoin:miter;stroke-miterlimit:4;stroke-dasharray:none;stroke-dashoffset:0;stroke-opacity:1;-inkscape-stroke:none;stop-color:#000000;stop-opacity:1"
         d="m 207.24274,326.00514 c 0,0 56.32142,35.51835 74.7588,72.39302 2.83894,5.67788 51.10096,-30.75521 51.10096,-30.75521 0,0 -42.17918,-48.28607 -55.35937,-53.93988 -15.67832,-6.72543 -70.50039,12.30207 -70.50039,12.30207 z"
         id="path4"
         sodipodi:nodetypes="cscsc" /><path
         style="fill:#dfdfdf;fill-opacity:1;stroke:#000000;stroke-width:8.73524;stroke-linecap:round;-inkscape-stroke:none"
         d="m 446.98885,133.49443 c 0,0 360,-6.35688 418.88476,39.14498 58.88475,45.50185 41.48698,144.53531 -22.75093,147.21189 -64.23792,2.67658 -401.73293,-82.35102 -400.1487,-17.39777 1.33829,54.86989 -113.75465,85.65056 -113.75465,85.65056 0,0 -40.1487,-78.95911 -103.04833,-61.56134 -62.89962,17.39777 -22.75093,-62.89963 -22.75093,-62.89963"
         id="path2"
         sodipodi:nodetypes="cssscsc" /><path
         style="fill:#212121;fill-opacity:1;stroke:#000000;stroke-width:8.73524;stroke-linecap:round;-inkscape-stroke:none"
         d="m 214.12639,286.39405 c 0,0 159.25651,8.02974 240.8922,-112.41635 81.63569,-120.446101 -322.52788,54.86988 -240.8922,112.41635 z"
         id="path1"
         sodipodi:nodetypes="csc" /><path
         style="fill:#272727;fill-opacity:1;stroke:#000000;stroke-width:8.73524;stroke-linecap:round;-inkscape-stroke:none"
         d="m 276.88047,200.53069 c 0,0 -0.79223,-5.66362 -9.40862,-11.50708 -4.23895,-2.87476 -13.75951,2.79267 -16.20791,0.01 -3.84203,-4.36682 0.0118,-0.0198 -5.05918,-7.35074 -5.44555,-7.87252 29.58405,-34.37183 36.57625,-27.19837 4.01025,4.11422 4.03588,3.21545 8.36431,11.15571 3.5885,6.58291 -8.18732,6.9923 -6.42413,12.35252 2.34634,7.13301 8.12773,12.29799 8.12773,12.29799"
         id="path3"
         sodipodi:nodetypes="cssssssc" /><path
         style="font-variation-settings:normal;opacity:1;vector-effect:none;fill:#b6b6b6;fill-opacity:1;stroke:#000000;stroke-width:8.73524;stroke-linecap:round;stroke-linejoin:miter;stroke-miterlimit:4;stroke-dasharray:none;stroke-dashoffset:0;stroke-opacity:1;-inkscape-stroke:none"
         d="m 522.60223,254.94424 c 0,0 15.08803,-66.50343 16.05949,-74.2751 2.00743,-16.05948 50.18587,-12.71375 51.52416,0.66915 1.33829,13.3829 -13.38291,78.95911 -13.38291,78.95911"
         id="path5"
         sodipodi:nodetypes="cssc" /></g></g><g
     inkscape:groupmode="layer"
     id="layer2"
     inkscape:label="Arrows"><path
       style="fill:none;fill-opacity:1;stroke:#cf210d;stroke-width:15;stroke-linecap:round;stroke-dasharray:none;stroke-opacity:1;marker-end:url(#ArrowTriangleStylized)"
       d="M 326.85037,544.85441 285.74943,433.29469"
       id="path8"
       sodipodi:nodetypes="cc" /><path
       style="fill:none;fill-opacity:1;stroke:#cf210d;stroke-width:15;stroke-linecap:round;stroke-dasharray:none;stroke-opacity:1;marker-end:url(#ArrowTriangleStylized)"
       d="M 471.68228,554.64033 516.69761,311.94904"
       id="path9"
       sodipodi:nodetypes="cc" /></g><g
     inkscape:groupmode="layer"
     id="layer3"
     inkscape:label="Text"><text
       xml:space="preserve"
       style="font-style:normal;font-variant:normal;font-weight:normal;font-stretch:normal;font-size:37.3234px;font-family:'Allerta Stencil';-inkscape-font-specification:'Allerta Stencil';text-align:start;letter-spacing:1.81157px;writing-mode:lr-tb;direction:ltr;text-anchor:start;white-space:pre;inline-size:430.198;display:inline;opacity:1;fill:#000000;fill-opacity:1;stroke:none;stroke-width:1.74954;stroke-linecap:round;stroke-linejoin:miter;stroke-miterlimit:4;stroke-dasharray:none;stroke-dashoffset:0;stroke-opacity:1"
       x="68.027527"
       y="540.57373"
       id="text7"
       transform="matrix(2.7600369,0,0,2.7600369,-125.02367,-848.99952)"><tspan
         x="68.027527"
         y="540.57373"
         id="tspan1">Squeeze and
</tspan><tspan
         x="68.027527"
         y="587.22801"
         id="tspan2">release
</tspan><tspan
         x="68.027527"
         y="633.88224"
         id="tspan3">to throw</tspan></text><text
       xml:space="preserve"
       style="font-style:normal;font-variant:normal;font-weight:normal;font-stretch:normal;font-size:37.3234px;font-family:'Allerta Stencil';-inkscape-font-specification:'Allerta Stencil';text-align:start;letter-spacing:0px;writing-mode:lr-tb;direction:ltr;text-anchor:start;white-space:pre;inline-size:430.198;display:inline;fill:#000000;fill-opacity:1;stroke:none;stroke-width:1.74954;stroke-linecap:round;stroke-linejoin:miter;stroke-miterlimit:4;stroke-dasharray:none;stroke-dashoffset:0;stroke-opacity:1"
       x="68.027527"
       y="540.57373"
       id="text7-5"
       transform="matrix(2.1919488,0,0,2.1919488,214.97748,-728.313)"><tspan
         x="68.027527"
         y="540.57373"
         id="tspan4">or</tspan></text></g><g
     inkscape:groupmode="layer"
     id="layer4"
     inkscape:label="Ball"><g
       id="g7"
       inkscape:label="Ball"
       transform="matrix(0.60076787,0,0,0.60076787,532.59077,390.96872)"><circle
         style="font-variation-settings:normal;display:inline;opacity:1;vector-effect:none;fill:#dfdfdf;fill-opacity:1;stroke:#000000;stroke-width:8.73524;stroke-linecap:round;stroke-linejoin:miter;stroke-miterlimit:4;stroke-dasharray:none;stroke-dashoffset:0;stroke-opacity:1;-inkscape-stroke:none;stop-color:#000000;stop-opacity:1"
         id="path6"
         cx="501.85873"
         cy="688.55017"
         r="210.11153" /><path
         style="font-variation-settings:normal;opacity:1;vector-effect:none;fill:none;fill-opacity:1;stroke:#b65c5c;stroke-width:8.73524;stroke-linecap:round;stroke-linejoin:miter;stroke-miterlimit:4;stroke-dasharray:none;stroke-dashoffset:0;stroke-opacity:1;-inkscape-stroke:none"
         d="m 337.6149,557.79853 c 0,0 -6.85016,117.43127 34.25079,140.91752 41.10094,23.48626 228.01238,-10.76453 228.01238,-10.76453 0,0 37.18657,-9.78594 49.90829,0.97859 12.72172,10.76454 45.99391,26.42204 34.25078,101.77377"
         id="path7" /><circle
         style="font-variation-settings:normal;display:inline;vector-effect:none;fill:none;fill-opacity:1;stroke:#000000;stroke-width:8.73524;stroke-linecap:round;stroke-linejoin:miter;stroke-miterlimit:4;stroke-dasharray:none;stroke-dashoffset:0;stroke-opacity:1;-inkscape-stroke:none;stop-color:#000000"
         id="path6-9"
         cx="501.85873"
         cy="688.55017"
         r="210.11153" /></g></g></svg>
